<svg width="48" height="46" viewBox="0 0 48 46" fill="none" xmlns="http://www.w3.org/2000/svg">
<path d="M34.6249 10.7161C33.8443 10.7161 33.2115 10.0833 33.2115 9.30275V4.0088C33.2115 3.88841 33.1136 3.79053 32.9933 3.79053H15.0039C14.8835 3.79053 14.7856 3.88841 14.7856 4.0088V9.30275C14.7856 10.0833 14.1529 10.7161 13.3723 10.7161C12.5918 10.7161 11.959 10.0833 11.959 9.30275V4.0088C11.959 2.32985 13.3249 0.963867 15.0039 0.963867H32.9932C34.6722 0.963867 36.0381 2.32985 36.0381 4.0088V9.30275C36.0381 10.0833 35.4054 10.7161 34.6249 10.7161Z" fill="#D77F4A"/>
<path d="M14.2228 3.79102H15.004C14.884 3.79102 14.7856 3.88853 14.7856 4.00938V9.30333C14.7856 10.083 14.153 10.7166 13.3724 10.7166C13.0922 10.7166 12.8326 10.6351 12.6133 10.4944C13.0059 10.2433 13.2665 9.80372 13.2665 9.30333V4.74727C13.2665 4.21912 13.6946 3.79102 14.2228 3.79102Z" fill="#C86D36"/>
<path d="M36.0384 4.00955V9.3035C36.0384 10.0832 35.4058 10.7167 34.6252 10.7167C34.345 10.7167 34.0854 10.6353 33.8661 10.4946C34.2588 10.2434 34.5194 9.80389 34.5194 9.3035V4.00955C34.5194 2.33022 33.1539 0.963867 31.4746 0.963867H32.9937C34.6729 0.963867 36.0384 2.33013 36.0384 4.00955Z" fill="#C86D36"/>
<path d="M44.172 45.0349H3.8285C2.10239 45.0349 0.703125 43.6356 0.703125 41.9095V11.4808C0.703125 9.75474 2.10239 8.35547 3.8285 8.35547H44.172C45.8981 8.35547 47.2974 9.75474 47.2974 11.4808V41.9095C47.2973 43.6356 45.898 45.0349 44.172 45.0349Z" fill="#E19974"/>
<path d="M40.1694 25.9182H7.831C3.89432 25.9182 0.703125 22.7269 0.703125 18.7903V11.4818C0.703125 9.75571 2.10239 8.35645 3.8285 8.35645H44.172C45.8981 8.35645 47.2974 9.75571 47.2974 11.4818V18.7903C47.2973 22.7269 44.1061 25.9182 40.1694 25.9182Z" fill="#E19974"/>
<path d="M47.2985 11.4818V41.9107C47.2985 43.6369 45.8993 45.0361 44.1731 45.0361H42.2988C44.025 45.0361 45.4242 43.6369 45.4242 41.9107V11.4818C45.4242 9.75562 44.025 8.35645 42.2988 8.35645H44.1731C45.8993 8.35645 47.2985 9.75562 47.2985 11.4818Z" fill="#DC8758"/>
<path d="M47.2971 11.4818V18.7906C47.2971 22.7266 44.1052 25.9184 40.1692 25.9184H38.2949C42.2309 25.9184 45.4228 22.7266 45.4228 18.7906V11.4818C45.4228 9.75562 44.0236 8.35645 42.2974 8.35645H44.1717C45.8979 8.35645 47.2971 9.75562 47.2971 11.4818Z" fill="#DC8758"/>
<path d="M11.1659 30.0834C10.2501 30.0834 9.50781 29.341 9.50781 28.4253V23.411C9.50781 22.4952 10.2502 21.7529 11.1659 21.7529C12.0816 21.7529 12.8239 22.4953 12.8239 23.411V28.4253C12.8239 29.341 12.0816 30.0834 11.1659 30.0834Z" fill="#F8F6F6"/>
<path d="M12.826 23.4108V28.4245C12.826 29.341 12.0828 30.0832 11.1673 30.0832C10.8646 30.0832 10.5816 30.0026 10.3379 29.8611C10.8336 29.5752 11.1673 29.0392 11.1673 28.4244V23.4107C11.1673 22.9524 10.9817 22.5383 10.6819 22.2374C10.5797 22.1353 10.4645 22.0463 10.338 21.9741C10.5817 21.8326 10.8646 21.752 11.1674 21.752C11.6257 21.752 12.0398 21.9375 12.3397 22.2374C12.6404 22.5384 12.826 22.9525 12.826 23.4108Z" fill="#EBEBEB"/>
<path d="M36.8338 30.0834C35.9181 30.0834 35.1758 29.341 35.1758 28.4253V23.411C35.1758 22.4952 35.9182 21.7529 36.8338 21.7529C37.7496 21.7529 38.4919 22.4953 38.4919 23.411V28.4253C38.492 29.341 37.7496 30.0834 36.8338 30.0834Z" fill="#F8F6F6"/>
<path d="M38.4931 23.4108V28.4245C38.4931 29.341 37.7509 30.0832 36.8353 30.0832C36.5326 30.0832 36.2495 30.0026 36.0059 29.8611C36.5016 29.5743 36.8353 29.0383 36.8353 28.4244V23.4107C36.8353 22.9524 36.6497 22.5383 36.3499 22.2374C36.2477 22.1353 36.1315 22.0463 36.006 21.9741C36.2496 21.8326 36.5326 21.752 36.8354 21.752C37.2936 21.752 37.7079 21.9375 38.0077 22.2374C38.3076 22.5384 38.4931 22.9525 38.4931 23.4108Z" fill="#EBEBEB"/>
<path d="M46.4944 18.6903H46.4943V18.7903C46.4943 22.2778 43.6568 25.1153 40.1692 25.1153H39.2949V23.4112C39.2949 22.0542 38.1911 20.9503 36.834 20.9503C35.4769 20.9503 34.373 22.0541 34.373 23.4112V25.1153H13.6271V23.4112C13.6271 22.0541 12.5232 20.9503 11.1661 20.9503C9.80902 20.9503 8.70524 22.0542 8.70524 23.4112V25.1153H7.83079C4.34323 25.1153 1.50574 22.2778 1.50574 18.7903V11.4818C1.50574 10.2013 2.54773 9.15927 3.82829 9.15927H44.1718C45.4524 9.15927 46.4944 10.2013 46.4944 11.4818V18.6903ZM44.1717 7.55353H36.8425V4.00957C36.8425 1.88779 35.1164 0.161719 32.9946 0.161719H29.541C29.0975 0.161719 28.7382 0.521156 28.7382 0.96454C28.7382 1.40793 29.0976 1.76736 29.541 1.76736H32.9946C34.2308 1.76736 35.2367 2.77326 35.2367 4.00947V7.55344H34.0158V4.00957C34.0158 3.44643 33.5577 2.98847 32.9946 2.98847H15.0054C14.4423 2.98847 13.9842 3.44643 13.9842 4.00957V7.55353H12.7633V4.00957C12.7633 2.77336 13.7692 1.76746 15.0054 1.76746H26.2886C26.7321 1.76746 27.0914 1.40802 27.0914 0.964634C27.0914 0.521241 26.732 0.161813 26.2886 0.161813H15.0054C12.8836 0.161813 11.1575 1.88788 11.1575 4.00966V7.55363H3.82829C1.66207 7.55353 -0.1 9.3156 -0.1 11.4818V30.7856C-0.1 31.2291 0.259437 31.5884 0.702821 31.5884C1.14621 31.5884 1.50564 31.229 1.50564 30.7856V23.5666C2.95447 25.4807 5.24976 26.721 7.8307 26.721H8.70505V28.4256C8.70505 29.7827 9.80883 30.8865 11.1659 30.8865C12.523 30.8865 13.6269 29.7827 13.6269 28.4256V26.721H34.3728V28.4256C34.3728 29.7827 35.4767 30.8865 36.8338 30.8865C38.1909 30.8865 39.2947 29.7827 39.2947 28.4256V26.721H40.169C42.75 26.721 45.0452 25.4807 46.4941 23.5666V41.9104C46.4941 43.1909 45.4521 44.2329 44.1715 44.2329H3.82829C2.54773 44.2329 1.50574 43.1909 1.50574 41.9104V34.0557C1.50574 33.6122 1.1463 33.2528 0.702915 33.2528C0.259539 33.2528 -0.1 33.6122 -0.1 34.0557V41.9104C-0.1 44.0765 1.66207 45.8386 3.82829 45.8386H44.1718C46.3379 45.8386 48.1001 44.0766 48.1001 41.9104V11.4818C48.1 9.3156 46.3379 7.55353 44.1717 7.55353ZM15.5899 4.59421H32.4102V7.55353H15.5899V4.59421ZM12.0213 28.4256C12.0213 28.8971 11.6376 29.2808 11.1661 29.2808C10.6947 29.2808 10.3109 28.8971 10.3109 28.4256V23.4112C10.3109 22.9397 10.6946 22.556 11.1661 22.556C11.6376 22.556 12.0213 22.9397 12.0213 23.4112V28.4256ZM37.6891 28.4256C37.6891 28.8971 37.3054 29.2808 36.8339 29.2808C36.3624 29.2808 35.9787 28.8971 35.9787 28.4256V23.4112C35.9787 22.9397 36.3624 22.556 36.8339 22.556C37.3053 22.556 37.6891 22.9397 37.6891 23.4112V28.4256Z" fill="black" stroke="black" stroke-width="0.2"/>
</svg>
