<svg width="40" height="48" viewBox="0 0 40 48" fill="none" xmlns="http://www.w3.org/2000/svg">
<path d="M39.1322 0.703125V38.9456L5.04281 42.6656L0.867188 43.1213V4.87875C0.867188 3.72563 1.33406 2.68125 2.08969 1.92563C2.84531 1.17 3.88969 0.703125 5.04281 0.703125H39.1322Z" fill="#DA4A54"/>
<path d="M5.04281 0.703125V42.6656L0.867188 43.1213V4.87875C0.867188 3.72563 1.33406 2.68125 2.08969 1.92563C2.84531 1.17 3.88969 0.703125 5.04281 0.703125Z" fill="#C32430"/>
<path d="M39.1325 38.9458H5.04263C2.73656 38.9458 0.867188 40.8152 0.867188 43.1212C0.867188 45.4273 2.73656 47.2967 5.04263 47.2967H39.1325V38.9458Z" fill="#C32430"/>
<path d="M5.04263 44.953C4.03266 44.953 3.21094 44.1313 3.21094 43.1213C3.21094 42.1114 4.03266 41.2896 5.04263 41.2896H39.1325V44.953H5.04263Z" fill="#DFEAEF"/>
<path d="M15.9029 9.75619L12.8675 6.64078L9.83203 9.75619V0.703125H15.9029V9.75619Z" fill="#F4DD45"/>
<path d="M29.1375 12.3735H12.9503C11.3274 12.3735 10.0117 13.6892 10.0117 15.3121V24.2788C10.0117 25.9017 11.3274 27.2173 12.9503 27.2173H29.1375C30.7604 27.2173 32.0761 25.9017 32.0761 24.2788V15.3121C32.0761 13.6892 30.7605 12.3735 29.1375 12.3735Z" fill="#DFEAEF"/>
<path d="M39.8353 6.79688C39.8353 6.40856 39.5205 6.09375 39.1322 6.09375C38.7439 6.09375 38.4291 6.40856 38.4291 6.79688V38.2428H5.74584V1.40625H9.12881V9.75619C9.12881 10.0422 9.30216 10.2998 9.56709 10.4076C9.83194 10.5152 10.1359 10.4518 10.3356 10.2469L12.8674 7.64841L15.3993 10.2469C15.5343 10.3854 15.7169 10.4594 15.903 10.4594C15.9921 10.4594 16.082 10.4424 16.1677 10.4076C16.4327 10.2998 16.606 10.0423 16.606 9.75619V1.40625H38.4292V3.98438C38.4292 4.37269 38.744 4.6875 39.1323 4.6875C39.5206 4.6875 39.8354 4.37269 39.8354 3.98438V0.703125C39.8354 0.314812 39.5206 0 39.1323 0H5.04281C3.73903 0 2.51362 0.507281 1.59253 1.42847C0.671437 2.34966 0.164062 3.57497 0.164062 4.87875V43.1213C0.164062 43.1224 0.16425 43.1235 0.16425 43.1247C0.166031 45.8133 2.35378 48 5.04272 48H39.1326C39.5209 48 39.8357 47.6852 39.8357 47.2969L39.8353 6.79688ZM15.1997 1.40625V8.02706L13.3709 6.15019C13.2385 6.01434 13.0569 5.93775 12.8673 5.93775C12.6776 5.93775 12.496 6.01434 12.3637 6.15019L10.535 8.02706V1.40625H15.1997ZM2.58684 2.42278C3.07359 1.93613 3.67978 1.61222 4.33959 1.47741V38.2942C3.26325 38.4503 2.29987 38.9587 1.57031 39.6989V4.87875C1.57031 3.95053 1.93134 3.07838 2.58684 2.42278ZM5.04272 46.5938C3.12806 46.5938 1.57041 45.0361 1.57041 43.1214C1.57041 41.2068 3.12806 39.649 5.04272 39.649H38.4294V40.5863H10.1128C9.7245 40.5863 9.40969 40.9011 9.40969 41.2894C9.40969 41.6777 9.7245 41.9925 10.1128 41.9925H38.4291V44.25H5.04281C4.42041 44.25 3.91406 43.7437 3.91406 43.1213C3.91406 42.4988 4.42041 41.9925 5.04281 41.9925H7.30031C7.68862 41.9925 8.00344 41.6777 8.00344 41.2894C8.00344 40.9011 7.68862 40.5863 7.30031 40.5863H5.04281C3.645 40.5863 2.50781 41.7234 2.50781 43.1213C2.50781 44.5191 3.645 45.6562 5.04281 45.6562H38.4294V46.5938H5.04272Z" fill="black"/>
<path d="M12.9503 11.6704C10.9423 11.6704 9.30859 13.3041 9.30859 15.3121V24.2788C9.30859 26.2869 10.9423 27.9206 12.9503 27.9206H29.1375C31.1455 27.9206 32.7792 26.2869 32.7792 24.2788V15.3121C32.7792 13.3041 31.1455 11.6704 29.1375 11.6704H12.9503ZM31.3729 15.3121V24.2788C31.3729 25.5115 30.3701 26.5143 29.1375 26.5143H12.9503C11.7177 26.5143 10.7148 25.5115 10.7148 24.2788V15.3121C10.7148 14.0795 11.7177 13.0767 12.9503 13.0767H29.1375C30.3702 13.0767 31.3729 14.0795 31.3729 15.3121Z" fill="black"/>
<path d="M27.6478 17.23H14.4395C14.0511 17.23 13.7363 17.5448 13.7363 17.9331C13.7363 18.3214 14.0511 18.6362 14.4395 18.6362H27.6478C28.0361 18.6362 28.3509 18.3214 28.3509 17.9331C28.3509 17.5448 28.0361 17.23 27.6478 17.23Z" fill="black"/>
<path d="M27.6478 20.9551H14.4395C14.0511 20.9551 13.7363 21.2699 13.7363 21.6582C13.7363 22.0465 14.0511 22.3613 14.4395 22.3613H27.6478C28.0361 22.3613 28.3509 22.0465 28.3509 21.6582C28.3509 21.2699 28.0361 20.9551 27.6478 20.9551Z" fill="black"/>
</svg>
