<svg width="48" height="48" viewBox="0 0 48 48" fill="none" xmlns="http://www.w3.org/2000/svg">
<path d="M29.625 13.3324V3.51562H18.375V13.3324C18.375 14.6978 17.9913 16.0358 17.2676 17.1937L5.41988 36.15C4.69622 37.3079 4.3125 38.6459 4.3125 40.0114C4.3125 44.035 7.57434 47.2969 11.598 47.2969H36.4019C40.4256 47.2969 43.6874 44.035 43.6874 40.0114C43.6874 38.6459 43.3037 37.308 42.58 36.1501L30.7324 17.1937C30.0087 16.0358 29.625 14.6978 29.625 13.3324Z" fill="#96E8FF"/>
<path d="M16.5 40.0114C16.5 38.6459 16.8837 37.3079 17.6074 36.15L30.1584 16.0684C29.8077 15.2028 29.625 14.2742 29.625 13.3324V3.51562H18.375V13.3324C18.375 14.6978 17.9913 16.0357 17.2676 17.1937L5.41988 36.15C4.69622 37.3079 4.3125 38.6459 4.3125 40.0114C4.3125 44.035 7.57434 47.2969 11.598 47.2969H23.7855C19.7618 47.2969 16.5 44.035 16.5 40.0114Z" fill="#80DBFF"/>
<path d="M29.625 6.32812H18.375C16.8217 6.32812 15.5625 5.06897 15.5625 3.51562C15.5625 1.96228 16.8217 0.703125 18.375 0.703125H29.625C31.1783 0.703125 32.4375 1.96228 32.4375 3.51562C32.4375 5.06897 31.1783 6.32812 29.625 6.32812Z" fill="#B5EFFF"/>
<path d="M21.1875 3.51562C21.1875 1.96228 22.4467 0.703125 24 0.703125H18.375C16.8217 0.703125 15.5625 1.96228 15.5625 3.51562C15.5625 5.06897 16.8217 6.32812 18.375 6.32812H24C22.4467 6.32812 21.1875 5.06897 21.1875 3.51562Z" fill="#96E8FF"/>
<path d="M16.5411 31.1029C18.061 31.1029 19.2931 30.1217 19.2931 28.9113C19.2931 27.7009 18.061 26.7197 16.5411 26.7197C15.0212 26.7197 13.7891 27.7009 13.7891 28.9113C13.7891 30.1217 15.0212 31.1029 16.5411 31.1029Z" fill="white"/>
<path d="M31.4552 31.1029C32.9751 31.1029 34.2072 30.1217 34.2072 28.9113C34.2072 27.7009 32.9751 26.7197 31.4552 26.7197C29.9353 26.7197 28.7031 27.7009 28.7031 28.9113C28.7031 30.1217 29.9353 31.1029 31.4552 31.1029Z" fill="white"/>
<path d="M18.1445 27.5049C17.7561 27.5049 17.4414 27.1901 17.4414 26.8018V25.6768C17.4414 25.2884 17.7561 24.9736 18.1445 24.9736C18.5329 24.9736 18.8477 25.2884 18.8477 25.6768V26.8018C18.8477 27.1901 18.5328 27.5049 18.1445 27.5049Z" fill="black"/>
<path d="M29.8516 27.5049C29.4632 27.5049 29.1484 27.1901 29.1484 26.8018V25.6768C29.1484 25.2884 29.4632 24.9736 29.8516 24.9736C30.24 24.9736 30.5547 25.2884 30.5547 25.6768V26.8018C30.5547 27.1901 30.24 27.5049 29.8516 27.5049Z" fill="black"/>
<path d="M23.9966 28.1749C23.2017 28.1749 22.446 27.8307 21.9231 27.2305C21.6679 26.9377 21.6984 26.4937 21.9913 26.2385C22.284 25.9834 22.7282 26.0138 22.9833 26.3066C23.2391 26.6002 23.6085 26.7686 23.9967 26.7686C24.3849 26.7686 24.7543 26.6002 25.0102 26.3066C25.2653 26.0138 25.7093 25.9834 26.0021 26.2385C26.2949 26.4936 26.3255 26.9377 26.0704 27.2305C25.5473 27.8307 24.7915 28.1749 23.9966 28.1749Z" fill="black"/>
<path d="M12.4633 35.4938L10.1899 39.1312C10.025 39.3952 9.9375 39.7001 9.9375 40.0114C9.9375 40.9284 10.6809 41.672 11.5981 41.672H36.402C37.3191 41.672 38.0626 40.9285 38.0626 40.0114C38.0626 39.7001 37.9751 39.3952 37.8102 39.1312L35.5368 35.4938C35.0228 34.6715 34.1215 34.1719 33.1518 34.1719H14.8483C13.8786 34.1719 12.9773 34.6715 12.4633 35.4938Z" fill="#FFE45C"/>
<path d="M29.8555 39.7969C30.891 39.7969 31.7305 38.9574 31.7305 37.9219C31.7305 36.8863 30.891 36.0469 29.8555 36.0469C28.8199 36.0469 27.9805 36.8863 27.9805 37.9219C27.9805 38.9574 28.8199 39.7969 29.8555 39.7969Z" fill="#FFDA45"/>
<path d="M16.5 40.0114C16.5 38.6459 16.8837 37.308 17.6074 36.15L18.8438 34.1719H14.8483C13.8786 34.1719 12.9773 34.6715 12.4633 35.4938L10.1899 39.1312C10.025 39.3952 9.9375 39.7001 9.9375 40.0113C9.9375 40.9283 10.6809 41.6719 11.5981 41.6719H16.6925C16.568 41.1382 16.5 40.5829 16.5 40.0114Z" fill="#FFDA45"/>
<path d="M43.1764 35.7773L31.3287 16.8211C30.6742 15.7738 30.3281 14.5674 30.3281 13.3325V9.14062C30.3281 8.75231 30.0134 8.4375 29.625 8.4375C29.2366 8.4375 28.9219 8.75231 28.9219 9.14062V13.3324C28.9219 14.8313 29.3418 16.2953 30.1361 17.5664L41.9838 36.5227C42.6383 37.5699 42.9844 38.7763 42.9844 40.0113C42.9844 43.6408 40.0315 46.5937 36.402 46.5937H11.598C7.96847 46.5938 5.01562 43.6409 5.01562 40.0114C5.01562 38.7763 5.36156 37.5699 6.01622 36.5228L17.8639 17.5665C18.4446 16.6374 18.8242 15.605 18.9869 14.5313H24C24.3884 14.5313 24.7031 14.2165 24.7031 13.8282C24.7031 13.4399 24.3884 13.1251 24 13.1251H19.0781V10.7813H24C24.3884 10.7813 24.7031 10.4665 24.7031 10.0782C24.7031 9.68991 24.3884 9.37509 24 9.37509H19.0781V7.03125H29.625C31.5636 7.03125 33.1406 5.45419 33.1406 3.51562C33.1406 1.57706 31.5636 0 29.625 0H18.375C16.4364 0 14.8594 1.57706 14.8594 3.51562C14.8594 5.21344 16.0691 6.63384 17.6719 6.96047V13.3324C17.6719 14.5674 17.3259 15.7738 16.6713 16.821L4.82362 35.7772C4.02928 37.0483 3.60938 38.5124 3.60938 40.0114C3.60938 44.4163 7.19306 48 11.598 48H36.402C40.8069 48 44.3906 44.4163 44.3906 40.0114C44.3906 38.5124 43.9707 37.0483 43.1764 35.7773ZM16.2656 3.51562C16.2656 2.35247 17.2119 1.40625 18.375 1.40625H29.625C30.7881 1.40625 31.7344 2.35247 31.7344 3.51562C31.7344 4.67878 30.7881 5.625 29.625 5.625H18.375C17.2119 5.625 16.2656 4.67878 16.2656 3.51562Z" fill="black"/>
<path d="M36.4019 40.9688H21.6562C21.2678 40.9688 20.9531 41.2836 20.9531 41.6719C20.9531 42.0602 21.2678 42.375 21.6562 42.375H36.4019C37.7052 42.375 38.7656 41.3147 38.7656 40.0114C38.7656 39.5678 38.6414 39.1345 38.4064 38.7586L36.1329 35.1211C35.4862 34.0865 34.3718 33.4688 33.1517 33.4688H14.8483C13.6283 33.4688 12.5138 34.0865 11.8671 35.1211L9.59372 38.7585C9.35859 39.1345 9.23438 39.5677 9.23438 40.0113C9.23438 41.3147 10.2948 42.375 11.5981 42.375H18.8438C19.2322 42.375 19.5469 42.0602 19.5469 41.6719C19.5469 41.2836 19.2322 40.9688 18.8438 40.9688H11.5981C11.0701 40.9688 10.6406 40.5393 10.6406 40.0114C10.6406 39.8317 10.691 39.6562 10.7862 39.5039L13.0597 35.8664C13.4477 35.2456 14.1163 34.875 14.8483 34.875H33.1517C33.8838 34.875 34.5523 35.2456 34.9403 35.8664L37.2139 39.5039C37.309 39.6562 37.3594 39.8317 37.3594 40.0113C37.3594 40.5393 36.9299 40.9688 36.4019 40.9688Z" fill="black"/>
</svg>
