<svg width="48" height="48" viewBox="0 0 48 48" fill="none" xmlns="http://www.w3.org/2000/svg">
<path d="M24.0032 47.2735C36.8564 47.2735 47.2759 36.8539 47.2759 24.0008C47.2759 11.1476 36.8564 0.728027 24.0032 0.728027C11.15 0.728027 0.730469 11.1476 0.730469 24.0008C0.730469 36.8539 11.15 47.2735 24.0032 47.2735Z" fill="#E1E6E9"/>
<path d="M11.4922 13.5278H36.6558V46.546H11.4922V13.5278Z" fill="white"/>
<path d="M36.6546 47.273H11.4909C11.0546 47.273 10.7637 46.9821 10.7637 46.5457V13.5276C10.7637 13.0912 11.0546 12.8003 11.4909 12.8003H36.6546C37.0909 12.8003 37.3819 13.0912 37.3819 13.5276V46.5457C37.3819 46.9821 37.0182 47.273 36.6546 47.273ZM12.2182 45.8185H35.9273V14.2548H12.2182V45.8185Z" fill="#193651"/>
<path d="M39.0561 47.2719H9.09251C8.65614 47.2719 8.36523 46.981 8.36523 46.5447C8.36523 46.1083 8.65614 45.8174 9.09251 45.8174H39.0561C39.4925 45.8174 39.7834 46.1083 39.7834 46.5447C39.7834 46.981 39.4198 47.2719 39.0561 47.2719Z" fill="#193651"/>
<path d="M24.0717 1.45459L9.08984 10.4728V13.5273H39.0535V10.4728L24.0717 1.45459Z" fill="#F16050"/>
<path d="M39.0561 14.2546H9.09251C8.65614 14.2546 8.36523 13.9636 8.36523 13.5273V10.4727C8.36523 10.1818 8.51069 9.96365 8.72887 9.81819L23.7107 0.800009C23.9289 0.654554 24.2198 0.654554 24.438 0.800009L39.4198 9.81819C39.638 9.96365 39.7834 10.1818 39.7834 10.4727V13.5273C39.7834 13.9636 39.4198 14.2546 39.0561 14.2546ZM9.81978 12.8H38.3289V10.9091L24.0743 2.32728L9.81978 10.9091V12.8Z" fill="#193651"/>
<path d="M14.4746 10.618L24.0746 4.87256L33.6019 10.618H14.4746Z" fill="white"/>
<path d="M14.3984 16.4355H17.6712V19.7083H14.3984V16.4355Z" fill="#2BA1DB"/>
<path d="M19.709 16.436H22.9817V19.7088H19.709V16.436Z" fill="#2BA1DB"/>
<path d="M25.0879 16.4355H28.3606V19.7083H25.0879V16.4355Z" fill="#2BA1DB"/>
<path d="M30.3984 16.4355H33.6712V19.7083H30.3984V16.4355Z" fill="#2BA1DB"/>
<path d="M14.3984 21.2363H17.6712V24.5091H14.3984V21.2363Z" fill="#2BA1DB"/>
<path d="M19.709 21.2363H22.9817V24.5091H19.709V21.2363Z" fill="#2BA1DB"/>
<path d="M25.0879 21.2363H28.3606V24.5091H25.0879V21.2363Z" fill="#2BA1DB"/>
<path d="M30.3984 21.2363H33.6712V24.5091H30.3984V21.2363Z" fill="#2BA1DB"/>
<path d="M14.3984 26.0371H17.6712V29.3098H14.3984V26.0371Z" fill="#2BA1DB"/>
<path d="M19.709 26.0366H22.9817V29.3093H19.709V26.0366Z" fill="#2BA1DB"/>
<path d="M25.0879 26.0371H28.3606V29.3098H25.0879V26.0371Z" fill="#2BA1DB"/>
<path d="M30.3984 26.0371H33.6712V29.3098H30.3984V26.0371Z" fill="#2BA1DB"/>
<path d="M14.3984 30.7632H17.6712V34.0359H14.3984V30.7632Z" fill="#2BA1DB"/>
<path d="M19.709 30.7632H22.9817V34.0359H19.709V30.7632Z" fill="#2BA1DB"/>
<path d="M25.0879 30.7632H28.3606V34.0359H25.0879V30.7632Z" fill="#2BA1DB"/>
<path d="M30.3984 30.7632H33.6712V34.0359H30.3984V30.7632Z" fill="#2BA1DB"/>
<path d="M14.3984 35.564H17.6712V38.8367H14.3984V35.564Z" fill="#2BA1DB"/>
<path d="M19.709 35.5635H22.9817V38.8362H19.709V35.5635Z" fill="#2BA1DB"/>
<path d="M25.0879 35.564H28.3606V38.8367H25.0879V35.564Z" fill="#2BA1DB"/>
<path d="M30.3984 35.564H33.6712V38.8367H30.3984V35.564Z" fill="#2BA1DB"/>
<path d="M14.3984 40.3628H17.6712V43.6355H14.3984V40.3628Z" fill="#2BA1DB"/>
<path d="M19.709 40.3633H22.9817V43.636H19.709V40.3633Z" fill="#2BA1DB"/>
<path d="M25.0879 40.3628H28.3606V43.6355H25.0879V40.3628Z" fill="#2BA1DB"/>
<path d="M30.3984 40.3628H33.6712V43.6355H30.3984V40.3628Z" fill="#2BA1DB"/>
<path d="M20.002 8.29102H21.4565V9.74556H20.002V8.29102Z" fill="#193651"/>
<path d="M23.3477 8.29102H24.8022V9.74556H23.3477V8.29102Z" fill="#193651"/>
<path d="M26.6914 8.29053H28.146V9.74507H26.6914V8.29053Z" fill="#193651"/>
</svg>
