<svg width="48" height="48" viewBox="0 0 48 48" fill="none" xmlns="http://www.w3.org/2000/svg">
<path d="M21.9831 11.0184L22.3759 9.20996H25.6234L26.2459 11.0184L25.5981 13.3753L21.3672 12.7743L21.9831 11.0184Z" fill="#FFE3B8"/>
<path d="M18.8711 44.7861L19.217 25.7651H28.7805L29.4714 44.7861H26.2455L23.9411 28.9911L22.3277 44.7861H18.8711Z" fill="#93D2FF"/>
<path d="M30.8557 15.2813C30.6598 13.3238 29.3004 12.4979 28.8954 12.3291L26.2451 11.0166C24.056 13.0904 21.9823 11.0166 21.9823 11.0166L19.2185 12.2813C19.2185 12.2813 17.3754 12.9722 17.1448 15.2813C16.9573 17.1675 16.9216 23.8922 16.916 27.1472C16.916 27.4527 17.0374 27.7456 17.2533 27.9616C17.4693 28.1776 17.7623 28.2989 18.0677 28.2989C18.3732 28.2989 18.6661 28.1776 18.8821 27.9616C19.0981 27.7456 19.2195 27.4527 19.2195 27.1472V25.7653H28.781V27.1491C28.781 27.4546 28.9024 27.7475 29.1183 27.9635C29.3343 28.1795 29.6273 28.3008 29.9327 28.3008C30.2382 28.3008 30.5311 28.1795 30.7471 27.9635C30.9631 27.7475 31.0845 27.4546 31.0845 27.1491C31.0788 23.8922 31.0441 17.1675 30.8557 15.2813Z" fill="#FFC550"/>
<path d="M17.0098 18.6958C16.9366 22.233 16.916 24.8927 16.916 27.1474C16.916 27.4528 17.0374 27.7458 17.2533 27.9618C17.4693 28.1777 17.7623 28.2991 18.0677 28.2991C18.3732 28.2991 18.6661 28.1777 18.8821 27.9618C19.0981 27.7458 19.2195 27.4528 19.2195 27.1474V25.7655L19.5232 19.203L17.0098 18.6958Z" fill="#FFE3B8"/>
<path d="M30.99 18.6958C31.0631 22.233 31.0837 24.8927 31.0837 27.1474C31.0837 27.4528 30.9624 27.7458 30.7464 27.9618C30.5304 28.1777 30.2375 28.2991 29.932 28.2991C29.6266 28.2991 29.3336 28.1777 29.1176 27.9618C28.9017 27.7458 28.7803 27.4528 28.7803 27.1474V25.7655L28.4766 19.203L30.99 18.6958Z" fill="#FFE3B8"/>
<path d="M27.2691 6.00662C27.2691 7.8085 25.8085 10.7147 24.0066 10.7147C22.2048 10.7147 20.7441 7.8085 20.7441 6.00662C20.7441 5.14123 21.0879 4.31128 21.6998 3.69935C22.3118 3.08743 23.1417 2.74365 24.0071 2.74365C24.8725 2.74365 25.7025 3.08743 26.3144 3.69935C26.9263 4.31128 27.2701 5.14123 27.2701 6.00662H27.2691Z" fill="#FFE3B8"/>
<path d="M18.485 47.7187C18.485 47.7187 18.2553 44.8781 20.5316 44.7862C22.8078 44.6944 22.7572 47.7187 22.7572 47.7187H18.485Z" fill="#AD5949"/>
<path d="M25.8112 47.7186C25.8112 47.7186 25.5806 44.8752 27.8625 44.7833C30.1443 44.6914 30.0834 47.7186 30.0834 47.7186H25.8112Z" fill="#AD5949"/>
<path d="M20.8862 7.14747C20.8862 7.14747 20.6247 6.0834 20.6518 5.62497C20.6518 5.62497 21.7412 4.73622 22.2709 4.07059C22.2709 4.07059 24.5003 4.70622 25.7256 4.07059C25.7256 4.07059 26.6143 5.13653 27.3475 5.62497C27.3475 5.62497 27.3334 6.48559 27.1131 7.15215C27.1131 7.15215 28.2315 5.83965 28.6403 4.66122C29.049 3.48278 27.6625 1.7259 26.5431 0.937466C25.4237 0.149029 24.5556 0.115279 23.9931 0.656216C23.9931 0.656216 22.7134 -0.462221 21.2293 1.10997C20.2281 2.17028 19.21 3.4209 19.3028 4.46434C19.4284 5.89309 20.8862 7.14747 20.8862 7.14747Z" fill="#AD5949"/>
<path d="M19.5218 19.4812H19.5087C19.4354 19.4768 19.3667 19.444 19.3173 19.3897C19.2679 19.3354 19.2417 19.2639 19.2443 19.1905L19.3681 16.5937C19.3636 16.5533 19.368 16.5124 19.3809 16.4738C19.3938 16.4353 19.4149 16.4 19.4427 16.3704C19.4705 16.3408 19.5044 16.3175 19.5421 16.3023C19.5798 16.287 19.6203 16.2801 19.6609 16.2821C19.7015 16.284 19.7412 16.2947 19.7773 16.3134C19.8134 16.3321 19.8449 16.3585 19.8698 16.3906C19.8948 16.4227 19.9124 16.4598 19.9216 16.4994C19.9308 16.539 19.9313 16.5801 19.9231 16.6199L19.7993 19.2187C19.7946 19.2893 19.7634 19.3556 19.712 19.4043C19.6605 19.4529 19.5926 19.4804 19.5218 19.4812Z" fill="black"/>
<path d="M28.4772 19.4813C28.4056 19.4815 28.3366 19.4543 28.2844 19.4054C28.2321 19.3564 28.2005 19.2894 28.1959 19.2179L28.0469 16.4523C28.0536 16.3855 28.084 16.3234 28.1325 16.277C28.181 16.2307 28.2445 16.2033 28.3115 16.1996C28.3785 16.196 28.4446 16.2165 28.4979 16.2573C28.5511 16.2981 28.588 16.3566 28.6019 16.4223L28.7509 19.1879C28.754 19.2613 28.7283 19.333 28.6793 19.3876C28.6302 19.4423 28.5617 19.4756 28.4884 19.4804L28.4772 19.4813Z" fill="black"/>
<path d="M26.2496 11.2959C26.1919 11.2954 26.1358 11.2771 26.0888 11.2435C26.0419 11.21 26.0064 11.1628 25.9871 11.1084L25.5437 9.82028C25.5315 9.75407 25.5435 9.6857 25.5775 9.62759C25.6115 9.56948 25.6652 9.52548 25.7288 9.50358C25.7925 9.48168 25.8619 9.48334 25.9244 9.50825C25.9869 9.53316 26.0385 9.57967 26.0696 9.63934L26.5131 10.9275C26.5267 10.9693 26.5303 11.0137 26.5237 11.0572C26.517 11.1007 26.5003 11.1421 26.4747 11.1779C26.4492 11.2137 26.4156 11.2431 26.3767 11.2636C26.3377 11.2841 26.2945 11.2951 26.2506 11.2959H26.2496Z" fill="black"/>
<path d="M21.9825 11.2959C21.9412 11.2954 21.9005 11.2857 21.8633 11.2677C21.8262 11.2496 21.7935 11.2236 21.7675 11.1915C21.7416 11.1593 21.723 11.1219 21.7132 11.0818C21.7033 11.0417 21.7024 10.9999 21.7106 10.9594L21.9796 9.72094C21.9823 9.68062 21.9937 9.64135 22.013 9.60581C22.0322 9.57027 22.0589 9.53929 22.0912 9.515C22.1235 9.4907 22.1606 9.47365 22.2001 9.465C22.2396 9.45636 22.2805 9.45633 22.32 9.46491C22.3595 9.47349 22.3966 9.49048 22.429 9.51472C22.4613 9.53897 22.488 9.5699 22.5074 9.60541C22.5267 9.64091 22.5381 9.68017 22.5408 9.72049C22.5436 9.76081 22.5377 9.80125 22.5234 9.83907L22.2543 11.0775C22.2402 11.1392 22.2057 11.1943 22.1563 11.234C22.107 11.2736 22.0457 11.2954 21.9825 11.2959Z" fill="black"/>
<path d="M29.4714 45.0647H26.2492C26.1827 45.0639 26.1185 45.0396 26.0682 44.9959C26.0179 44.9523 25.9847 44.8923 25.9745 44.8265L23.9898 31.2506L22.6042 44.8125C22.5964 44.8806 22.5641 44.9436 22.5131 44.9895C22.4622 45.0354 22.3962 45.0612 22.3277 45.0619H18.8711C18.7965 45.0619 18.725 45.0322 18.6722 44.9795C18.6195 44.9267 18.5898 44.8552 18.5898 44.7806L18.9367 25.7606C18.9389 25.6875 18.9695 25.6181 19.022 25.5672C19.0745 25.5162 19.1448 25.4878 19.218 25.4878H28.7805C28.8528 25.4877 28.9225 25.5155 28.9748 25.5655C29.0272 25.6154 29.0583 25.6836 29.0617 25.7559L29.7527 44.7769C29.7535 44.8143 29.7469 44.8516 29.7332 44.8865C29.7194 44.9214 29.6988 44.9532 29.6726 44.98C29.6464 45.0068 29.6151 45.0281 29.5806 45.0427C29.546 45.0572 29.5089 45.0647 29.4714 45.0647ZM26.4855 44.5087H29.1836L28.5123 26.04H19.4898L19.1542 44.5087H22.0764L23.6636 28.964C23.675 28.9001 23.7082 28.8421 23.7576 28.7999C23.8069 28.7577 23.8693 28.7338 23.9342 28.7324C23.9992 28.731 24.0626 28.752 24.1137 28.792C24.1649 28.832 24.2006 28.8885 24.2148 28.9519L26.4855 44.5087Z" fill="black"/>
<path d="M29.9334 28.5789C29.7454 28.5791 29.5592 28.5423 29.3855 28.4706C29.2117 28.3989 29.0537 28.2937 28.9206 28.1609C28.7875 28.0281 28.6819 27.8705 28.6097 27.6969C28.5375 27.5233 28.5002 27.3372 28.5 27.1492V26.0439H19.5V27.1492C19.5 27.5284 19.3494 27.892 19.0813 28.1601C18.8131 28.4282 18.4495 28.5789 18.0703 28.5789C17.6911 28.5789 17.3275 28.4282 17.0594 28.1601C16.7913 27.892 16.6406 27.5284 16.6406 27.1492C16.6472 23.4986 16.6866 17.0992 16.8713 15.256C17.1094 12.8729 18.9403 12.0995 19.1138 12.032L21.8709 10.7682C21.9226 10.7451 21.98 10.7381 22.0357 10.7482C22.0914 10.7582 22.1428 10.7848 22.1831 10.8245C22.26 10.9004 24.0966 12.6779 26.0587 10.8189C26.1002 10.7802 26.1523 10.7549 26.2084 10.7464C26.2644 10.7378 26.3217 10.7464 26.3728 10.771L29.0166 12.0789C29.1759 12.1482 30.9066 12.9535 31.1362 15.256C31.3237 17.0992 31.3594 23.4986 31.3669 27.1492C31.3672 27.3371 31.3305 27.5233 31.2588 27.697C31.1871 27.8707 31.0819 28.0286 30.9491 28.1616C30.8163 28.2946 30.6585 28.4001 30.4849 28.472C30.3113 28.5439 30.1251 28.5809 29.9372 28.5807L29.9334 28.5789ZM19.2178 25.4851H28.7812C28.8558 25.4851 28.9274 25.5147 28.9801 25.5675C29.0329 25.6202 29.0625 25.6918 29.0625 25.7664V27.1492C29.0587 27.2663 29.0784 27.3829 29.1206 27.4922C29.1627 27.6015 29.2264 27.7012 29.3079 27.7854C29.3894 27.8696 29.487 27.9366 29.5948 27.9823C29.7027 28.028 29.8186 28.0515 29.9358 28.0515C30.0529 28.0515 30.1689 28.028 30.2767 27.9823C30.3846 27.9366 30.4822 27.8696 30.5637 27.7854C30.6451 27.7012 30.7088 27.6015 30.751 27.4922C30.7932 27.3829 30.8129 27.2663 30.8091 27.1492C30.8025 23.5089 30.7631 17.1292 30.5813 15.3104C30.3778 13.2732 28.8553 12.6142 28.7906 12.587L28.7747 12.5795L26.295 11.3532C24.3356 13.0642 22.4681 11.7845 21.9375 11.3476L19.3359 12.5401L19.3181 12.5476C19.2506 12.5739 17.6306 13.216 17.4234 15.3104C17.2416 17.1301 17.2022 23.5089 17.1956 27.1492C17.1918 27.2663 17.2115 27.3829 17.2537 27.4922C17.2959 27.6015 17.3596 27.7012 17.441 27.7854C17.5225 27.8696 17.6201 27.9366 17.7279 27.9823C17.8358 28.028 17.9518 28.0515 18.0689 28.0515C18.1861 28.0515 18.302 28.028 18.4099 27.9823C18.5177 27.9366 18.6153 27.8696 18.6968 27.7854C18.7782 27.7012 18.842 27.6015 18.8841 27.4922C18.9263 27.3829 18.946 27.2663 18.9422 27.1492V25.7654C18.9432 25.6923 18.9726 25.6224 19.0242 25.5706C19.0758 25.5188 19.1456 25.4891 19.2188 25.4879L19.2178 25.4851Z" fill="black"/>
<path d="M18.0664 28.5787C17.8785 28.5788 17.6923 28.5419 17.5187 28.4699C17.3451 28.398 17.1873 28.2925 17.0545 28.1596C16.9217 28.0266 16.8165 27.8687 16.7448 27.695C16.6731 27.5212 16.6364 27.3351 16.6367 27.1471C16.6367 25.1728 16.6545 22.4278 16.7305 18.69C16.7318 18.6494 16.7419 18.6097 16.76 18.5734C16.7781 18.5372 16.8039 18.5053 16.8355 18.4799C16.8671 18.4545 16.9038 18.4363 16.9431 18.4264C16.9825 18.4166 17.0234 18.4153 17.0633 18.4228L19.5748 18.93C19.6388 18.9437 19.696 18.9793 19.7365 19.0306C19.7771 19.0819 19.7985 19.1458 19.797 19.2112L19.4998 25.7718V27.149C19.4996 27.337 19.4623 27.5231 19.3902 27.6967C19.318 27.8703 19.2123 28.028 19.0792 28.1607C18.9461 28.2935 18.7882 28.3987 18.6144 28.4704C18.4406 28.5422 18.2544 28.5789 18.0664 28.5787ZM17.2808 19.0312C17.2095 22.5937 17.1964 25.2318 17.1927 27.1453C17.1888 27.2624 17.2086 27.379 17.2507 27.4883C17.2929 27.5976 17.3566 27.6973 17.4381 27.7815C17.5195 27.8657 17.6171 27.9326 17.725 27.9784C17.8328 28.0241 17.9488 28.0476 18.0659 28.0476C18.1831 28.0476 18.299 28.0241 18.4069 27.9784C18.5148 27.9326 18.6123 27.8657 18.6938 27.7815C18.7753 27.6973 18.839 27.5976 18.8811 27.4883C18.9233 27.379 18.9431 27.2624 18.9392 27.1453V25.7653C18.9392 25.7653 18.9392 25.7568 18.9392 25.7521L19.2327 19.4278L17.2808 19.0312Z" fill="black"/>
<path d="M29.9327 28.5787C29.7447 28.579 29.5585 28.5422 29.3847 28.4705C29.211 28.3988 29.053 28.2935 28.9199 28.1608C28.7868 28.028 28.6811 27.8703 28.609 27.6967C28.5368 27.5232 28.4995 27.337 28.4993 27.1491V25.7719L28.1993 19.2187C28.1978 19.1533 28.2192 19.0895 28.2598 19.0381C28.3003 18.9868 28.3575 18.9512 28.4215 18.9375L30.9368 18.4237C30.9766 18.4163 31.0176 18.4175 31.0569 18.4274C31.0962 18.4373 31.133 18.4555 31.1646 18.4809C31.1962 18.5063 31.2219 18.5382 31.2401 18.5744C31.2582 18.6107 31.2683 18.6504 31.2696 18.6909C31.3465 22.4278 31.3634 25.1737 31.3634 27.1481C31.3637 27.3361 31.327 27.5222 31.2553 27.696C31.1836 27.8697 31.0784 28.0276 30.9455 28.1605C30.8127 28.2935 30.655 28.399 30.4814 28.4709C30.3077 28.5428 30.1216 28.5798 29.9337 28.5797L29.9327 28.5787ZM28.7655 19.4287L29.0618 25.7531C29.0618 25.7531 29.0618 25.7616 29.0618 25.7662V27.1491C29.058 27.2661 29.0777 27.3828 29.1199 27.4921C29.162 27.6014 29.2257 27.7011 29.3072 27.7853C29.3887 27.8695 29.4862 27.9364 29.5941 27.9821C29.702 28.0279 29.8179 28.0514 29.9351 28.0514C30.0522 28.0514 30.1682 28.0279 30.276 27.9821C30.3839 27.9364 30.4815 27.8695 30.5629 27.7853C30.6444 27.7011 30.7081 27.6014 30.7503 27.4921C30.7924 27.3828 30.8122 27.2661 30.8084 27.1491C30.8084 25.2366 30.7915 22.5984 30.7202 19.035L28.7655 19.4287Z" fill="black"/>
<path d="M24.0058 10.9922C23.3289 10.9922 22.6511 10.6378 22.0455 9.96653C21.1295 8.95122 20.4648 7.28528 20.4648 6.00653C20.465 5.82766 20.4785 5.64904 20.5052 5.47216C20.5248 5.40761 20.567 5.35228 20.624 5.31625C20.6811 5.28023 20.7492 5.26591 20.8159 5.27591C20.8826 5.28592 20.9435 5.31957 20.9875 5.37074C21.0315 5.42191 21.0556 5.48719 21.0555 5.55466C21.033 5.70424 21.0218 5.85528 21.0217 6.00653C21.0217 7.14278 21.6395 8.68497 22.4589 9.59341C22.8058 9.97779 23.3561 10.4372 24.0067 10.4372C24.677 10.4372 25.2405 9.95341 25.5948 9.54841C26.403 8.62497 26.9908 7.13435 26.9908 6.00653C26.991 5.86412 26.981 5.72188 26.9608 5.58091C26.949 5.54218 26.9457 5.50136 26.9511 5.46124C26.9566 5.42112 26.9706 5.38265 26.9923 5.34845C27.014 5.31425 27.0428 5.28514 27.0767 5.2631C27.1107 5.24106 27.149 5.22661 27.1891 5.22074C27.2291 5.21488 27.27 5.21772 27.3088 5.2291C27.3477 5.24047 27.3836 5.2601 27.4142 5.28664C27.4448 5.31318 27.4693 5.34601 27.486 5.38288C27.5027 5.41975 27.5113 5.4598 27.5111 5.50028C27.5355 5.66793 27.5477 5.83712 27.5477 6.00653C27.5477 7.25528 26.9027 8.89872 26.0139 9.9131C25.3952 10.619 24.7014 10.9922 24.0058 10.9922Z" fill="black"/>
<path d="M22.7567 47.9999H18.4845C18.4141 48.0002 18.3461 47.974 18.2941 47.9267C18.242 47.8793 18.2096 47.8141 18.2032 47.744C18.1976 47.6802 18.0861 46.1643 18.9186 45.224C19.3151 44.7758 19.8561 44.5349 20.5198 44.5077C21.1648 44.4815 21.7039 44.6765 22.122 45.0861C23.0539 45.9983 23.0314 47.6558 23.0304 47.7261C23.0285 47.7981 22.9991 47.8667 22.9481 47.9176C22.8972 47.9685 22.8287 47.998 22.7567 47.9999ZM18.7564 47.444H22.4679C22.4342 46.9752 22.2964 46.0321 21.7357 45.4836C21.4264 45.1818 21.0373 45.044 20.5461 45.0646C20.0314 45.0852 19.6367 45.2577 19.3395 45.5924C18.8436 46.1502 18.7648 47.0165 18.7573 47.444H18.7564Z" fill="black"/>
<path d="M30.0828 47.9999H25.8107C25.7403 48.0002 25.6723 47.974 25.6202 47.9267C25.5682 47.8793 25.5357 47.8141 25.5294 47.744C25.5238 47.6802 25.4122 46.1643 26.2447 45.224C26.6413 44.7758 27.1822 44.5349 27.846 44.5077C28.491 44.4815 29.03 44.6765 29.4482 45.0861C30.38 45.9983 30.3575 47.6558 30.3566 47.7261C30.3547 47.7981 30.3253 47.8667 30.2743 47.9176C30.2234 47.9685 30.1549 47.998 30.0828 47.9999ZM26.0825 47.444H29.7941C29.7603 46.9752 29.6225 46.0321 29.0619 45.4836C28.7525 45.1818 28.3635 45.044 27.8722 45.0646C27.3566 45.0852 26.9619 45.2586 26.6647 45.5933C26.1678 46.154 26.0891 47.0183 26.0825 47.444Z" fill="black"/>
<path d="M27.1133 7.42497C27.0696 7.42422 27.0266 7.41327 26.9878 7.39299C26.9491 7.37272 26.9155 7.34368 26.89 7.30818C26.8644 7.27268 26.8474 7.2317 26.8405 7.1885C26.8335 7.14531 26.8367 7.10108 26.8499 7.05935C26.9731 6.63639 27.0449 6.20012 27.0636 5.75997C26.5077 5.35497 25.9142 4.70622 25.6508 4.40622C24.5333 4.84872 22.9096 4.5131 22.3696 4.38091C21.9215 4.87176 21.4394 5.33039 20.9268 5.75341C20.9399 6.13872 21.0908 6.82591 21.1546 7.08185C21.1675 7.13884 21.1624 7.19846 21.14 7.25242C21.1175 7.30638 21.0788 7.352 21.0292 7.38293C20.9796 7.41386 20.9216 7.42857 20.8632 7.42502C20.8049 7.42147 20.7491 7.39982 20.7036 7.3631C20.6408 7.30872 19.1586 6.01685 19.0246 4.49903C18.9214 3.33185 19.978 2.03997 21.0261 0.929972C22.3227 -0.447215 23.5171 0.0365344 23.9764 0.314034C24.4452 -0.0215905 25.3105 -0.266278 26.7027 0.711535C27.8699 1.53185 29.3764 3.38153 28.9039 4.74278C28.483 5.96153 27.3721 7.26841 27.3252 7.32372C27.2993 7.35487 27.2669 7.38004 27.2303 7.39752C27.1938 7.41499 27.1538 7.42436 27.1133 7.42497ZM22.8946 0.555909C22.4886 0.555909 21.9796 0.723722 21.4302 1.30591C20.5236 2.26685 19.4943 3.49122 19.5786 4.44466C19.6386 5.12716 20.0474 5.78153 20.4224 6.24747C20.3858 6.0345 20.3698 5.81851 20.3746 5.60247C20.3772 5.56428 20.3877 5.52704 20.4052 5.49302C20.4228 5.45901 20.4472 5.42894 20.4768 5.40466C20.4871 5.39622 21.5493 4.52716 22.0536 3.89247C22.0881 3.85 22.1342 3.8185 22.1864 3.80185C22.2385 3.7852 22.2943 3.78411 22.3471 3.79872C22.3686 3.80435 24.4855 4.39591 25.5983 3.81935C25.6546 3.7908 25.7189 3.78203 25.7808 3.79444C25.8427 3.80685 25.8986 3.83973 25.9396 3.88778C25.948 3.8981 26.8114 4.92841 27.5024 5.38778C27.5411 5.41394 27.5727 5.44931 27.5943 5.49072C27.6159 5.53213 27.6268 5.57827 27.6261 5.62497C27.6261 5.63997 27.6261 5.79841 27.6036 6.02903C27.9206 5.57472 28.1807 5.08324 28.378 4.5656C28.7221 3.57091 27.448 1.91528 26.383 1.16716C25.7193 0.698409 24.7986 0.269034 24.1864 0.861534C24.136 0.908962 24.0699 0.936141 24.0007 0.937871C23.9315 0.9396 23.8641 0.915759 23.8114 0.870909C23.5495 0.667404 23.2272 0.556906 22.8955 0.556847L22.8946 0.555909Z" fill="black"/>
</svg>
