<svg width="49" height="48" viewBox="0 0 49 48" fill="none" xmlns="http://www.w3.org/2000/svg">
<path d="M0.666016 24C0.666016 10.7452 11.4112 0 24.666 0C37.9208 0 48.666 10.7452 48.666 24C48.666 37.2548 37.9208 48 24.666 48C11.4112 48 0.666016 37.2548 0.666016 24Z" fill="#2A94F1"/>
<path d="M14.666 19L22.8309 24.7154C23.4921 25.1783 23.8227 25.4097 24.1823 25.4993C24.4999 25.5785 24.8321 25.5785 25.1498 25.4993C25.5093 25.4097 25.8399 25.1783 26.5011 24.7154L34.666 19M19.466 32H29.866C31.5462 32 32.3863 32 33.028 31.673C33.5925 31.3854 34.0514 30.9265 34.339 30.362C34.666 29.7202 34.666 28.8802 34.666 27.2V20.8C34.666 19.1198 34.666 18.2798 34.339 17.638C34.0514 17.0735 33.5925 16.6146 33.028 16.327C32.3863 16 31.5462 16 29.866 16H19.466C17.7859 16 16.9458 16 16.304 16.327C15.7396 16.6146 15.2806 17.0735 14.993 17.638C14.666 18.2798 14.666 19.1198 14.666 20.8V27.2C14.666 28.8802 14.666 29.7202 14.993 30.362C15.2806 30.9265 15.7396 31.3854 16.304 31.673C16.9458 32 17.7859 32 19.466 32Z" stroke="white" stroke-width="2" stroke-linecap="round" stroke-linejoin="round"/>
</svg>
