<svg width="49" height="48" viewBox="0 0 49 48" fill="none" xmlns="http://www.w3.org/2000/svg">
<path d="M0.332031 24C0.332031 10.7452 11.0772 0 24.332 0C37.5869 0 48.332 10.7452 48.332 24C48.332 37.2548 37.5869 48 24.332 48C11.0772 48 0.332031 37.2548 0.332031 24Z" fill="#2A94F1"/>
<path d="M20.7123 20.8534C21.4083 22.303 22.3571 23.6616 23.5587 24.8632C24.7603 26.0648 26.1189 27.0136 27.5685 27.7096C27.6932 27.7694 27.7555 27.7994 27.8344 27.8224C28.1148 27.9041 28.4591 27.8454 28.6965 27.6754C28.7633 27.6275 28.8204 27.5704 28.9348 27.4561C29.2844 27.1064 29.4592 26.9316 29.6349 26.8174C30.2978 26.3864 31.1524 26.3864 31.8153 26.8174C31.9911 26.9316 32.1659 27.1064 32.5155 27.4561L32.7104 27.6509C33.2418 28.1824 33.5075 28.4481 33.6519 28.7335C33.9389 29.301 33.9389 29.9713 33.6519 30.5389C33.5075 30.8242 33.2418 31.09 32.7104 31.6214L32.5527 31.779C32.0231 32.3087 31.7583 32.5735 31.3983 32.7757C30.9988 33.0001 30.3783 33.1615 29.92 33.1601C29.5071 33.1589 29.2249 33.0788 28.6604 32.9186C25.627 32.0576 22.7647 30.4332 20.3767 28.0452C17.9887 25.6572 16.3642 22.7948 15.5033 19.7614C15.3431 19.197 15.263 18.9148 15.2617 18.5018C15.2604 18.0436 15.4217 17.4231 15.6461 17.0236C15.8484 16.6636 16.1132 16.3988 16.6428 15.8691L16.8005 15.7115C17.3319 15.1801 17.5976 14.9143 17.883 14.77C18.4506 14.4829 19.1208 14.4829 19.6884 14.77C19.9738 14.9143 20.2395 15.1801 20.7709 15.7115L20.9658 15.9064C21.3154 16.256 21.4902 16.4308 21.6045 16.6066C22.0355 17.2694 22.0355 18.124 21.6045 18.7869C21.4902 18.9627 21.3154 19.1375 20.9658 19.4871C20.8515 19.6014 20.7943 19.6586 20.7465 19.7254C20.5765 19.9628 20.5178 20.3071 20.5995 20.5874C20.6225 20.6663 20.6524 20.7287 20.7123 20.8534Z" stroke="white" stroke-width="2" stroke-linecap="round" stroke-linejoin="round"/>
</svg>
