<svg width="18" height="18" viewBox="0 0 18 18" fill="none" xmlns="http://www.w3.org/2000/svg">
<g id="building-02">
<path id="Icon" d="M11.25 15.75V11.7C11.25 11.28 11.25 11.0699 11.1683 10.9095C11.0963 10.7684 10.9816 10.6537 10.8405 10.5817C10.6801 10.5 10.47 10.5 10.05 10.5H7.95C7.52996 10.5 7.31994 10.5 7.15951 10.5817C7.01839 10.6537 6.90365 10.7684 6.83175 10.9095C6.75 11.0699 6.75 11.28 6.75 11.7V15.75M2.25 5.25C2.25 6.49264 3.25736 7.5 4.5 7.5C5.74264 7.5 6.75 6.49264 6.75 5.25C6.75 6.49264 7.75736 7.5 9 7.5C10.2426 7.5 11.25 6.49264 11.25 5.25C11.25 6.49264 12.2574 7.5 13.5 7.5C14.7426 7.5 15.75 6.49264 15.75 5.25M4.65 15.75H13.35C14.1901 15.75 14.6101 15.75 14.931 15.5865C15.2132 15.4427 15.4427 15.2132 15.5865 14.931C15.75 14.6101 15.75 14.1901 15.75 13.35V4.65C15.75 3.80992 15.75 3.38988 15.5865 3.06901C15.4427 2.78677 15.2132 2.5573 14.931 2.41349C14.6101 2.25 14.1901 2.25 13.35 2.25H4.65C3.80992 2.25 3.38988 2.25 3.06901 2.41349C2.78677 2.5573 2.5573 2.78677 2.41349 3.06901C2.25 3.38988 2.25 3.80992 2.25 4.65V13.35C2.25 14.1901 2.25 14.6101 2.41349 14.931C2.5573 15.2132 2.78677 15.4427 3.06901 15.5865C3.38988 15.75 3.80992 15.75 4.65 15.75Z" stroke="black" stroke-width="1.5" stroke-linecap="round" stroke-linejoin="round"/>
</g>
</svg>
