<svg width="18" height="18" viewBox="0 0 18 18" fill="none" xmlns="http://www.w3.org/2000/svg">
<g id="message-question-circle">
<path id="Icon" d="M7.87496 6.75168C8.00711 6.37602 8.26794 6.05925 8.61126 5.85748C8.95458 5.65571 9.35824 5.58195 9.75073 5.64928C10.1432 5.7166 10.4992 5.92065 10.7557 6.2253C11.0121 6.52995 11.1525 6.91554 11.1519 7.31376C11.1519 8.43792 9.46565 9 9.46565 9M9.48739 11.25H9.49489M9.37496 15C12.8958 15 15.75 12.1458 15.75 8.625C15.75 5.10418 12.8958 2.25 9.37496 2.25C5.85415 2.25 2.99996 5.10418 2.99996 8.625C2.99996 9.3375 3.11685 10.0227 3.33249 10.6625C3.41364 10.9032 3.45421 11.0236 3.46153 11.1161C3.46876 11.2074 3.4633 11.2714 3.4407 11.3602C3.41782 11.4501 3.36731 11.5436 3.26628 11.7306L2.03954 14.0013C1.86456 14.3252 1.77706 14.4871 1.79665 14.6121C1.8137 14.7209 1.87777 14.8168 1.97184 14.8742C2.07985 14.9401 2.26294 14.9211 2.62912 14.8833L6.46989 14.4863C6.5862 14.4742 6.64435 14.4682 6.69736 14.4703C6.74949 14.4722 6.7863 14.4771 6.83714 14.4889C6.88883 14.5008 6.95383 14.5258 7.08383 14.5759C7.79487 14.8498 8.56738 15 9.37496 15Z" stroke="black" stroke-width="1.5" stroke-linecap="round" stroke-linejoin="round"/>
</g>
</svg>
