<svg width="18" height="18" viewBox="0 0 18 18" fill="none" xmlns="http://www.w3.org/2000/svg">
<g id="announcement-03">
<path id="Icon" d="M13.875 12C15.3247 12 16.5 9.81739 16.5 7.125C16.5 4.43261 15.3247 2.25 13.875 2.25M13.875 12C12.4253 12 11.25 9.81739 11.25 7.125C11.25 4.43261 12.4253 2.25 13.875 2.25M13.875 12L4.08266 10.2196C3.38704 10.0931 3.03923 10.0299 2.75799 9.89171C2.18585 9.61067 1.75977 9.10013 1.58561 8.48695C1.5 8.18554 1.5 7.83202 1.5 7.125C1.5 6.41798 1.5 6.06446 1.58561 5.76305C1.75977 5.14987 2.18585 4.63933 2.75799 4.35829C3.03923 4.22014 3.38704 4.1569 4.08266 4.03043L13.875 2.25M3.75 10.5L4.04539 14.6355C4.07344 15.0282 4.08747 15.2246 4.17291 15.3734C4.24813 15.5044 4.36117 15.6097 4.49722 15.6754C4.65174 15.75 4.84861 15.75 5.24234 15.75H6.57915C7.02926 15.75 7.25431 15.75 7.42088 15.6602C7.56725 15.5814 7.68326 15.4561 7.75067 15.3041C7.8274 15.1311 7.81013 14.9067 7.77561 14.458L7.5 10.875" stroke="#00A1F1" stroke-width="1.5" stroke-linecap="round" stroke-linejoin="round"/>
</g>
</svg>
