<svg width="18" height="18" viewBox="0 0 18 18" fill="none" xmlns="http://www.w3.org/2000/svg">
<g id="heart-hand" clip-path="url(#clip0_1_7505)">
<path id="Icon" d="M4.5 15.065H6.45772C6.71297 15.065 6.96666 15.0954 7.21411 15.1562L9.28267 15.6588C9.73151 15.7682 10.1991 15.7788 10.6526 15.6907L12.9397 15.2458C13.5439 15.1281 14.0997 14.8388 14.5353 14.4151L16.1534 12.841C16.6155 12.3922 16.6155 11.664 16.1534 11.2145C15.7374 10.8098 15.0785 10.7642 14.6078 11.1074L12.7219 12.4833C12.4519 12.6807 12.1232 12.7871 11.7852 12.7871H9.96412L11.1233 12.787C11.7767 12.787 12.3059 12.2722 12.3059 11.6366V11.4065C12.3059 10.8788 11.9367 10.4186 11.4106 10.2911L9.62145 9.85598C9.33029 9.78537 9.0321 9.74968 8.73235 9.74968C8.00875 9.74968 6.69892 10.3488 6.69892 10.3488L4.5 11.2683M1.5 10.9497L1.5 15.2997C1.5 15.7197 1.5 15.9297 1.58175 16.0902C1.65365 16.2313 1.76839 16.346 1.90951 16.4179C2.06994 16.4997 2.27996 16.4997 2.7 16.4997H3.3C3.72004 16.4997 3.93006 16.4997 4.09049 16.4179C4.23161 16.346 4.34635 16.2313 4.41825 16.0902C4.5 15.9297 4.5 15.7197 4.5 15.2997V10.9497C4.5 10.5296 4.5 10.3196 4.41825 10.1592C4.34635 10.0181 4.23161 9.90333 4.09049 9.83142C3.93006 9.74968 3.72004 9.74968 3.3 9.74968H2.7C2.27996 9.74968 2.06994 9.74968 1.90951 9.83142C1.76839 9.90333 1.65365 10.0181 1.58175 10.1592C1.5 10.3196 1.5 10.5296 1.5 10.9497ZM12.8935 2.69387C12.4459 1.75723 11.4139 1.26102 10.4103 1.73996C9.40671 2.2189 8.97915 3.35471 9.39934 4.3518C9.65903 4.96802 10.4031 6.16468 10.9336 6.98895C11.1296 7.29351 11.2276 7.44579 11.3707 7.53487C11.4935 7.61128 11.6472 7.65247 11.7918 7.64769C11.9603 7.64212 12.1213 7.55925 12.4434 7.3935C13.3149 6.94491 14.5576 6.28059 15.0906 5.87677C15.9531 5.22337 16.1667 4.02236 15.521 3.10936C14.8753 2.19636 13.7495 2.10652 12.8935 2.69387Z" stroke="#00A1F1" stroke-width="1.5" stroke-linecap="round" stroke-linejoin="round"/>
</g>
<defs>
<clipPath id="clip0_1_7505">
<rect width="18" height="18" fill="white"/>
</clipPath>
</defs>
</svg>
