<svg width="18" height="18" viewBox="0 0 18 18" fill="none" xmlns="http://www.w3.org/2000/svg">
<g id="building-03">
<path id="Icon" d="M5.625 5.25H7.6875M5.625 8.25H7.6875M5.625 11.25H7.6875M10.3125 5.25H12.375M10.3125 8.25H12.375M10.3125 11.25H12.375M15 15.75V4.65C15 3.80992 15 3.38988 14.8365 3.06901C14.6927 2.78677 14.4632 2.5573 14.181 2.41349C13.8601 2.25 13.4401 2.25 12.6 2.25H5.4C4.55992 2.25 4.13988 2.25 3.81901 2.41349C3.53677 2.5573 3.3073 2.78677 3.16349 3.06901C3 3.38988 3 3.80992 3 4.65V15.75M16.5 15.75H1.5" stroke="#00A1F1" stroke-width="1.5" stroke-linecap="round" stroke-linejoin="round"/>
</g>
</svg>
