<svg width="18" height="18" viewBox="0 0 18 18" fill="none" xmlns="http://www.w3.org/2000/svg">
<g id="phone">
<path id="Icon" d="M6.28325 6.64001C6.80525 7.72723 7.51684 8.74621 8.41803 9.64739C9.31921 10.5486 10.3382 11.2602 11.4254 11.7822C11.5189 11.8271 11.5657 11.8495 11.6249 11.8668C11.8351 11.9281 12.0933 11.884 12.2714 11.7565C12.3215 11.7206 12.3644 11.6778 12.4501 11.592C12.7123 11.3298 12.8434 11.1987 12.9752 11.113C13.4724 10.7898 14.1133 10.7898 14.6105 11.113C14.7423 11.1987 14.8734 11.3298 15.1356 11.592L15.2818 11.7382C15.6804 12.1368 15.8797 12.3361 15.9879 12.5501C16.2032 12.9758 16.2032 13.4785 15.9879 13.9041C15.8797 14.1182 15.6804 14.3175 15.2818 14.7161L15.1636 14.8343C14.7664 15.2315 14.5677 15.4301 14.2977 15.5818C13.9981 15.7501 13.5327 15.8711 13.1891 15.8701C12.8793 15.8692 12.6677 15.8091 12.2443 15.6889C9.9693 15.0432 7.82253 13.8249 6.03154 12.0339C4.24056 10.2429 3.0222 8.09612 2.37647 5.82108C2.25632 5.39774 2.19624 5.18607 2.19532 4.87636C2.1943 4.5327 2.31532 4.06733 2.48363 3.7677C2.63532 3.49768 2.83393 3.29907 3.23114 2.90185L3.34937 2.78362C3.74795 2.38504 3.94724 2.18575 4.16128 2.07749C4.58695 1.86219 5.08965 1.86219 5.51532 2.07749C5.72935 2.18575 5.92865 2.38504 6.32723 2.78362L6.47338 2.92978C6.73559 3.19198 6.86669 3.32308 6.9524 3.45492C7.27565 3.95208 7.27565 4.59302 6.9524 5.09019C6.86669 5.22202 6.73558 5.35312 6.47338 5.61533C6.38765 5.70106 6.34478 5.74393 6.3089 5.79404C6.18139 5.97211 6.13736 6.2303 6.19866 6.44057C6.2159 6.49974 6.23835 6.5465 6.28325 6.64001Z" stroke="#00A1F1" stroke-width="1.5" stroke-linecap="round" stroke-linejoin="round"/>
</g>
</svg>
