<svg width="18" height="18" viewBox="0 0 18 18" fill="none" xmlns="http://www.w3.org/2000/svg">
<g id="atom-02">
<path id="Icon" d="M12.8382 11.5184C12.6352 11.7479 12.4221 11.9746 12.1993 12.1974C8.97752 15.4192 4.9411 16.6064 3.18374 14.849C1.97893 13.6442 2.15811 11.3682 3.42806 9.01793M5.16896 6.5437C5.38024 6.30347 5.6025 6.06632 5.83539 5.83343C9.05721 2.61161 13.0936 1.42442 14.851 3.18178C16.0566 4.38742 15.8764 6.66572 14.604 9.01775M12.1993 5.83343C15.4212 9.05526 16.6084 13.0917 14.851 14.849C13.0936 16.6064 9.05721 15.4192 5.83539 12.1974C2.61356 8.97557 1.42638 4.93914 3.18374 3.18178C4.9411 1.42442 8.97752 2.61161 12.1993 5.83343ZM9.75176 8.99975C9.75176 9.41396 9.41597 9.74975 9.00176 9.74975C8.58754 9.74975 8.25176 9.41396 8.25176 8.99975C8.25176 8.58554 8.58754 8.24975 9.00176 8.24975C9.41597 8.24975 9.75176 8.58554 9.75176 8.99975Z" stroke="#00A1F1" stroke-width="1.5" stroke-linecap="round" stroke-linejoin="round"/>
</g>
</svg>
