<svg width="18" height="18" viewBox="0 0 18 18" fill="none" xmlns="http://www.w3.org/2000/svg">
<g id="star-02">
<path id="Icon" d="M8.47862 2.40459C8.64923 2.10769 8.73453 1.95925 8.84603 1.9095C8.94328 1.86611 9.05439 1.86611 9.15164 1.9095C9.26314 1.95925 9.34845 2.1077 9.51906 2.40459L10.9854 4.95633C11.0486 5.06623 11.0802 5.12119 11.1244 5.16112C11.1636 5.19645 11.2098 5.22312 11.26 5.23939C11.3167 5.25777 11.3801 5.25764 11.5069 5.25738L14.4499 5.25143C14.7924 5.25073 14.9636 5.25039 15.0624 5.32207C15.1486 5.3846 15.2042 5.48082 15.2152 5.58674C15.2279 5.70818 15.142 5.85628 14.9701 6.15248L13.4935 8.69826C13.4299 8.80791 13.3981 8.86274 13.3856 8.92105C13.3746 8.97264 13.3746 9.02598 13.3856 9.07758C13.3981 9.13589 13.4299 9.19072 13.4935 9.30036L14.9701 11.8462C15.142 12.1424 15.2279 12.2905 15.2152 12.4119C15.2042 12.5178 15.1486 12.614 15.0624 12.6766C14.9636 12.7482 14.7924 12.7479 14.4499 12.7472L11.5069 12.7412C11.3801 12.741 11.3167 12.7409 11.26 12.7592C11.2098 12.7755 11.1636 12.8022 11.1244 12.8375C11.0802 12.8774 11.0486 12.9324 10.9854 13.0423L9.51906 15.594C9.34845 15.8909 9.26314 16.0394 9.15164 16.0891C9.05439 16.1325 8.94328 16.1325 8.84603 16.0891C8.73453 16.0394 8.64923 15.8909 8.47862 15.594L7.01224 13.0423C6.94909 12.9324 6.91751 12.8774 6.87323 12.8375C6.83405 12.8022 6.78786 12.7755 6.73767 12.7592C6.68095 12.7409 6.61757 12.741 6.49081 12.7412L3.54775 12.7472C3.20532 12.7479 3.03411 12.7482 2.93528 12.6766C2.84907 12.614 2.79352 12.5178 2.78247 12.4119C2.76981 12.2905 2.85572 12.1424 3.02753 11.8462L4.50421 9.30036C4.56781 9.19072 4.59962 9.13589 4.61206 9.07758C4.62307 9.02598 4.62307 8.97264 4.61206 8.92105C4.59962 8.86274 4.56781 8.80791 4.50421 8.69826L3.02753 6.15247C2.85571 5.85627 2.76981 5.70818 2.78247 5.58674C2.79352 5.48082 2.84907 5.3846 2.93528 5.32207C3.03411 5.25039 3.20532 5.25073 3.54775 5.25143L6.49081 5.25738C6.61757 5.25764 6.68095 5.25777 6.73767 5.23939C6.78786 5.22312 6.83405 5.19645 6.87323 5.16112C6.91751 5.12119 6.94909 5.06623 7.01224 4.95633L8.47862 2.40459Z" stroke="#00A1F1" stroke-width="1.5" stroke-linecap="round" stroke-linejoin="round"/>
</g>
</svg>
