<svg width="18" height="18" viewBox="0 0 18 18" fill="none" xmlns="http://www.w3.org/2000/svg">
<path d="M7.3125 15.562L8.41723 16.1757C8.62993 16.2939 8.73628 16.3529 8.84891 16.3761C8.9486 16.3966 9.05141 16.3966 9.15109 16.3761C9.26372 16.3529 9.37007 16.2939 9.58277 16.1757L10.6875 15.562M3.9375 13.687L2.86723 13.0924C2.64259 12.9676 2.53026 12.9052 2.44847 12.8164C2.37612 12.7379 2.32136 12.6448 2.28786 12.5434C2.25 12.4288 2.25 12.3004 2.25 12.0434V10.8745M2.25 7.12445V5.95554C2.25 5.69856 2.25 5.57006 2.28786 5.45547C2.32136 5.35408 2.37612 5.26102 2.44847 5.18251C2.53026 5.09375 2.64259 5.03135 2.86723 4.90655L3.9375 4.31195M7.3125 2.43695L8.41723 1.82321C8.62993 1.70505 8.73628 1.64596 8.84891 1.6228C8.9486 1.6023 9.05141 1.6023 9.15109 1.6228C9.26372 1.64596 9.37007 1.70505 9.58277 1.82321L10.6875 2.43695M14.0625 4.31195L15.1328 4.90655C15.3574 5.03135 15.4697 5.09375 15.5515 5.1825C15.6239 5.26102 15.6786 5.35408 15.7121 5.45546C15.75 5.57006 15.75 5.69855 15.75 5.95554V7.12445M15.75 10.8745V12.0434C15.75 12.3004 15.75 12.4288 15.7121 12.5434C15.6786 12.6448 15.6239 12.7379 15.5515 12.8164C15.4697 12.9052 15.3574 12.9676 15.1328 13.0924L14.0625 13.687M7.3125 8.06195L9 8.99945M9 8.99945L10.6875 8.06195M9 8.99945V10.8745M2.25 5.24945L3.9375 6.18695M14.0625 6.18695L15.75 5.24945M9 14.6245V16.4995" stroke="#F34235" stroke-width="1.5" stroke-linecap="round" stroke-linejoin="round"/>
</svg>
