<svg width="48" height="48" viewBox="0 0 48 48" fill="none" xmlns="http://www.w3.org/2000/svg">
<path d="M35.6145 44.1294V45.6778C35.6145 46.5333 34.9216 47.2262 34.0661 47.2262H13.9371C13.0816 47.2262 12.3887 46.5333 12.3887 45.6778V44.1294C12.3887 43.274 13.0816 42.5811 13.9371 42.5811H17.0338H30.9693H34.0661C34.9216 42.5811 35.6145 43.274 35.6145 44.1294Z" fill="#969FAA"/>
<path d="M17.0332 37.9346H30.9687V42.5797H17.0332V37.9346Z" fill="#AAB2BD"/>
<path d="M3.09797 6.9668H44.9044C46.1872 6.9668 47.227 8.00664 47.227 9.28938V31.741H0.775391V9.28938C0.775391 8.00664 1.81523 6.9668 3.09797 6.9668Z" fill="#69D6F4"/>
<path d="M47.227 31.7432V35.6141C47.227 36.8964 46.1867 37.9367 44.9044 37.9367H30.9689H17.0335H3.09797C1.81571 37.9367 0.775391 36.8964 0.775391 35.6141V31.7432H5.42055H9.29152H18.5818H22.4528H27.098H32.1573H37.5225H42.5818H47.227Z" fill="#CCD1D9"/>
<path d="M18.9266 28.6436L18.5821 31.7403H9.29178L8.94727 28.6436H18.9266Z" fill="#FF826E"/>
<path d="M24.0004 20.1282V23.9992H22.4521H19.4414L20.1295 17.8057H21.6779C22.9601 17.8057 24.0004 18.846 24.0004 20.1282Z" fill="#FF826E"/>
<path d="M8.43025 23.9988L7.74219 17.8052L11.6132 16.2568L13.9357 18.5794L16.2583 16.2568L20.1293 17.8052L19.4412 23.9988L19.269 25.5472H8.60251L8.43025 23.9988Z" fill="#FF826E"/>
<path d="M7.74401 17.8057L8.43208 23.9992H5.42143H3.87305V20.1282C3.87305 18.846 4.91337 17.8057 6.19563 17.8057H7.74401Z" fill="#FF826E"/>
<path d="M19.27 25.5488L18.9264 28.6456H8.94706L8.60352 25.5488H19.27Z" fill="#FC6E51"/>
<path d="M8.94833 28.6452L9.29284 31.7419H5.42188V24H8.43252L8.60478 25.5484L8.94833 28.6452Z" fill="#E6E9ED"/>
<path d="M22.451 24V31.7419H18.5801L18.9246 28.6452L19.2681 25.5484L19.4404 24H22.451Z" fill="#E6E9ED"/>
<path d="M16.2584 12.6387V16.2571L13.9359 18.5796L11.6133 16.2571V12.6387C12.3178 12.9735 13.1046 13.1603 13.9359 13.1603C14.7672 13.1603 15.5539 12.9735 16.2584 12.6387Z" fill="#E6E9ED"/>
<path d="M22.4524 5.4185V6.96689C22.4524 7.82238 21.7595 8.51528 20.904 8.51528H19.3004C19.3372 8.2627 19.3556 8.00431 19.3556 7.74108V6.1927C19.3556 5.92947 19.3372 5.67108 19.2995 5.4185C19.222 4.87173 19.0624 4.35205 18.834 3.87012H20.904C21.7595 3.87012 22.4524 4.56302 22.4524 5.4185Z" fill="#E6E9ED"/>
<path d="M8.57323 8.5166H19.2997H19.3007C19.0394 10.3437 17.8674 11.8766 16.259 12.6402C15.5545 12.975 14.7677 13.1618 13.9365 13.1618C13.1052 13.1618 12.3184 12.975 11.6139 12.6402C10.0055 11.8766 8.83356 10.3437 8.57227 8.5166H8.57323Z" fill="#E6E9ED"/>
<path d="M9.03775 3.87021C9.90775 2.03924 11.7736 0.773438 13.9355 0.773438C15.4316 0.773438 16.7865 1.38021 17.7677 2.36053C18.2032 2.79699 18.5652 3.30699 18.8332 3.87021C19.0616 4.35215 19.2213 4.87182 19.2987 5.4186H8.57227C8.64968 4.87182 8.80936 4.35215 9.03775 3.87021Z" fill="#E6E9ED"/>
<path d="M6.97026 3.87012H9.04026C8.81187 4.35205 8.6522 4.87173 8.57478 5.4185C8.53704 5.67108 8.51865 5.92947 8.51865 6.1927V7.74108C8.51865 8.00431 8.53704 8.2627 8.57381 8.51528H6.97026C6.11478 8.51528 5.42188 7.82238 5.42188 6.96689V5.4185C5.42188 4.56302 6.11478 3.87012 6.97026 3.87012Z" fill="#E6E9ED"/>
<path d="M8.5698 5.41895H19.2963C19.334 5.67153 19.3524 5.92991 19.3524 6.19314V7.74153C19.3524 8.00475 19.334 8.26314 19.2972 8.51572H19.2963H8.5698H8.56883C8.53206 8.26314 8.51367 8.00475 8.51367 7.74153V6.19314C8.51367 5.92991 8.53206 5.67153 8.5698 5.41895Z" fill="#4FC1E9"/>
<path d="M30.1934 0.773438H39.4837V3.87021H30.1934V0.773438Z" fill="#E6E9ED"/>
<path d="M30.1934 6.9668H39.4837V11.612H30.1934V6.9668Z" fill="#E6E9ED"/>
<path d="M39.4837 14.71V19.3551H34.8385H30.1934V14.71H39.4837Z" fill="#E6E9ED"/>
<path d="M42.5835 28.6437V31.7405H37.5241C37.7874 31.2847 37.9383 30.7563 37.9383 30.1921C37.9383 28.4821 36.5515 27.0954 34.8415 27.0954C33.1315 27.0954 31.7448 28.4821 31.7448 30.1921C31.7448 30.7563 31.8957 31.2847 32.159 31.7405H27.0996V28.6437L28.9867 28.1715C29.069 27.9344 29.1638 27.7031 29.2722 27.4795L28.2725 25.8131L30.4625 23.6231L32.129 24.6228C32.3525 24.5144 32.5838 24.4196 32.8209 24.3373L33.2932 22.4502H34.8415H36.3899L36.8622 24.3373C37.0993 24.4196 37.3306 24.5144 37.5541 24.6228L39.2206 23.6231L41.4106 25.8131L40.4109 27.4795C40.5193 27.7031 40.6141 27.9344 40.6964 28.1715L42.5835 28.6437Z" fill="#FCD770"/>
<path d="M44.9032 6.19355H43.3548V1.54839H40.2581V0H29.4194V1.54839H26.3226V6.19355H23.2258V5.41935C23.2258 4.13865 22.1838 3.09677 20.9032 3.09677H19.2958C18.2232 1.24742 16.2229 0 13.9355 0C11.648 0 9.64781 1.24742 8.57516 3.09677H6.96774C5.68713 3.09677 4.64516 4.13865 4.64516 5.41935V6.19355H3.09677C1.38919 6.19355 0 7.58274 0 9.29032V35.6129C0 37.3205 1.38919 38.7097 3.09677 38.7097H16.2581V41.8064H13.9355C12.6549 41.8064 11.6129 42.8484 11.6129 44.129V45.6774C11.6129 46.958 12.6549 48 13.9355 48H34.0645C35.3451 48 36.3871 46.958 36.3871 45.6774V44.129C36.3871 42.8484 35.3451 41.8064 34.0645 41.8064H31.7419V38.7097H44.9032C46.6108 38.7097 48 37.3205 48 35.6129V9.29032C48 7.58274 46.6108 6.19355 44.9032 6.19355ZM44.9032 7.74194C45.757 7.74194 46.4516 8.43658 46.4516 9.29032V30.9677H43.3548V28.0407L41.2852 27.5233L42.3827 25.694L39.3382 22.6494L37.509 23.747L36.9915 21.6774H35.6129V20.129H40.2581V13.9355H35.6129V12.3871H40.2581V10.0645H43.3548V7.74194H44.9032ZM32.6493 30.9677C32.5621 30.7205 32.5161 30.4586 32.5161 30.1935C32.5161 28.9129 33.5581 27.871 34.8387 27.871C36.1193 27.871 37.1613 28.9129 37.1613 30.1935C37.1613 30.4586 37.1154 30.7205 37.0281 30.9677H32.6493ZM34.8387 26.3226C32.7043 26.3226 30.9677 28.0591 30.9677 30.1935C30.9677 30.4546 30.9946 30.714 31.0464 30.9677H27.871V29.2496L29.5789 28.8226L29.7158 28.4259C29.7887 28.2143 29.8727 28.0109 29.9655 27.821L30.1499 27.4434L29.2443 25.934L30.5792 24.5991L32.0886 25.5047L32.4662 25.3203C32.6561 25.2276 32.8595 25.1436 33.071 25.0706L33.4678 24.9338L33.8948 23.2258H35.7826L36.2096 24.9338L36.6064 25.0706C36.8179 25.1436 37.0214 25.2276 37.2112 25.3203L37.5888 25.5047L39.0982 24.5991L40.4331 25.934L39.5275 27.4434L39.712 27.821C39.8047 28.0109 39.8887 28.2143 39.9616 28.4259L40.0985 28.8226L41.8064 29.2496V30.9677H38.631C38.6827 30.714 38.7097 30.4546 38.7097 30.1935C38.7097 28.0591 36.9732 26.3226 34.8387 26.3226ZM38.7097 15.4839V18.5806H30.9677V15.4839H38.7097ZM38.7097 7.74194V10.8387H30.9677V7.74194H38.7097ZM41.8064 3.09677V8.51613H40.2581V6.19355H35.6129V4.64516H40.2581V3.09677H41.8064ZM30.9677 1.54839H38.7097V3.09677H30.9677V1.54839ZM27.871 3.09677H29.4194V4.64516H34.0645V6.19355H29.4194V12.3871H34.0645V13.9355H29.4194V16.2581H27.871V3.09677ZM29.4194 17.8065V20.129H34.0645V21.6774H32.6859L32.1684 23.747L30.3392 22.6494L27.2947 25.694L28.3922 27.5233L26.3226 28.0407V30.9677H23.2258V24.7742H24.7742V20.129C24.7742 18.4215 23.385 17.0323 21.6774 17.0323H20.2781L17.0323 15.7339V13.1023C18.4495 12.2803 19.5135 10.9141 19.9331 9.29032H20.9032C21.9125 9.29032 22.773 8.643 23.0926 7.74194H26.3226V17.8065H29.4194ZM7.04903 18.5806L7.56513 23.2258H4.64516V20.129C4.64516 19.2753 5.33981 18.5806 6.19355 18.5806H7.04903ZM18.5806 7.74194H9.29032V6.19355H18.5806V7.74194ZM18.3143 9.29032C17.6751 11.0925 15.9541 12.3871 13.9355 12.3871C11.9169 12.3871 10.1958 11.0925 9.55664 9.29032H18.3143ZM20.8219 18.5806H21.6774C22.5312 18.5806 23.2258 19.2753 23.2258 20.129V23.2258H20.3058L20.8219 18.5806ZM9.46713 26.3226H18.4038L18.2318 27.871H9.63919L9.46713 26.3226ZM18.5759 24.7742H14.7097V18.9013L16.4445 17.1664L19.2945 18.3064L18.5759 24.7742ZM13.9355 13.9355C14.47 13.9355 14.9888 13.8674 15.4839 13.7395V15.9375L13.9355 17.4858L12.3871 15.9375V13.7395C12.8822 13.8674 13.401 13.9355 13.9355 13.9355ZM11.4264 17.1665L13.1613 18.9013V24.7742H9.29506L8.57642 18.3065L11.4264 17.1665ZM7.73719 24.7742L8.42535 30.9677H6.19355V24.7742H7.73719ZM9.98323 30.9677L9.81116 29.4194H18.0597L17.8876 30.9677H9.98323ZM20.1338 24.7742H21.6774V30.9677H19.4456L20.1338 24.7742ZM20.9032 4.64516C21.3301 4.64516 21.6774 4.99248 21.6774 5.41935V6.96774C21.6774 7.39461 21.3301 7.74194 20.9032 7.74194H20.129V6.19355C20.129 5.65906 20.0609 5.14026 19.9331 4.64516H20.9032ZM13.9355 1.54839C15.9541 1.54839 17.6751 2.84294 18.3143 4.64516H9.55664C10.1958 2.84294 11.9169 1.54839 13.9355 1.54839ZM6.19355 5.41935C6.19355 4.99248 6.54087 4.64516 6.96774 4.64516H7.9379C7.81006 5.14026 7.74194 5.65906 7.74194 6.19355V7.74194H6.96774C6.54087 7.74194 6.19355 7.39461 6.19355 6.96774V5.41935ZM3.09677 7.74194H4.77832C5.09797 8.643 5.95848 9.29032 6.96774 9.29032H7.9379C8.35732 10.9141 9.42145 12.2803 10.8387 13.1023V15.7339L7.5929 17.0323H6.19355C4.48597 17.0323 3.09677 18.4215 3.09677 20.129V24.7742H4.64516V30.9677H1.54839V9.29032C1.54839 8.43658 2.24303 7.74194 3.09677 7.74194ZM34.8387 44.129V45.6774C34.8387 46.1043 34.4914 46.4516 34.0645 46.4516H13.9355C13.5086 46.4516 13.1613 46.1043 13.1613 45.6774V44.129C13.1613 43.7022 13.5086 43.3548 13.9355 43.3548H34.0645C34.4914 43.3548 34.8387 43.7022 34.8387 44.129ZM30.1935 41.8064H17.8065V38.7097H30.1935V41.8064ZM44.9032 37.1613H3.09677C2.24303 37.1613 1.54839 36.4666 1.54839 35.6129V32.5161H46.4516V35.6129C46.4516 36.4666 45.757 37.1613 44.9032 37.1613Z" fill="black"/>
<path d="M44.1297 35.6128C44.5572 35.6128 44.9039 35.2662 44.9039 34.8386C44.9039 34.4111 44.5572 34.0645 44.1297 34.0645C43.7021 34.0645 43.3555 34.4111 43.3555 34.8386C43.3555 35.2662 43.7021 35.6128 44.1297 35.6128Z" fill="black"/>
<path d="M41.032 35.6128C41.4596 35.6128 41.8062 35.2662 41.8062 34.8386C41.8062 34.4111 41.4596 34.0645 41.032 34.0645C40.6044 34.0645 40.2578 34.4111 40.2578 34.8386C40.2578 35.2662 40.6044 35.6128 41.032 35.6128Z" fill="black"/>
<path d="M37.9343 35.6128C38.3619 35.6128 38.7085 35.2662 38.7085 34.8386C38.7085 34.4111 38.3619 34.0645 37.9343 34.0645C37.5068 34.0645 37.1602 34.4111 37.1602 34.8386C37.1602 35.2662 37.5068 35.6128 37.9343 35.6128Z" fill="black"/>
</svg>
