<svg width="48" height="48" viewBox="0 0 48 48" fill="none" xmlns="http://www.w3.org/2000/svg">
<path d="M40.5425 23.0731C39.6472 25.2346 39.5908 27.9067 40.4861 30.0681L41.2566 31.5773H8.00082C8.00082 31.5773 1.80928 28.0985 8.00082 21.907L40.9693 21.2275L40.5425 23.0731Z" fill="#F1F2F2"/>
<path d="M41.2573 31.5777H8.00171C8.00171 31.5777 1.81036 28.0986 8.00171 21.9072L40.9704 21.2275L40.5429 23.0735C40.3451 23.5526 40.1876 24.056 40.0732 24.5735H9.89644C8.72735 24.5735 7.77671 25.5242 7.77671 26.6923C7.77671 27.8614 8.72735 28.812 9.89644 28.812H40.0845C40.1857 29.2442 40.3198 29.6652 40.4867 30.0683L41.2573 31.5777Z" fill="#DEE1E1"/>
<path d="M40.7524 32.9896L10.3543 32.9417C6.71257 32.9417 3.58501 30.6185 3.58501 26.9767C3.58501 26.1723 3.44495 25.1176 3.70867 24.4049C4.63878 21.8908 7.05757 20.0986 9.89506 20.0986H41.0805C41.902 20.0986 42.5679 20.7646 42.5679 21.586C42.5679 22.4075 41.902 23.0734 41.0805 23.0734H17.4785L15.1736 23.6144L13.169 23.0734H9.89506C7.89618 23.0734 6.27578 24.6938 6.27578 26.6927C6.27578 28.6915 7.89618 30.3119 9.89506 30.3119H41.0805C41.902 30.3119 42.5679 30.9779 42.5679 31.7993C42.5679 31.8586 42.5644 31.917 42.5577 31.9744C42.471 32.7134 41.5146 32.9896 40.7524 32.9896Z" fill="#B7E546"/>
<path d="M42.5584 31.9736C42.5181 32.3139 42.3634 32.6195 42.1337 32.8502C41.8637 33.1192 41.4924 33.2861 41.0818 33.2861L25.6749 34.2095L9.89625 33.2861C6.254 33.2861 3.30176 30.3339 3.30176 26.6916C3.30176 25.7419 3.50239 24.8391 3.86427 24.0234V25.3791C3.86427 29.0213 6.81651 31.9736 10.4588 31.9736H42.5584Z" fill="#ABD641"/>
<path d="M17.479 27.4083V23.0723H14.3884L13.291 23.1824L13.3569 27.2208C13.3569 27.3529 13.4898 27.4435 13.6128 27.3954L14.3883 27.2058L15.2558 26.8661C15.2998 26.8489 15.3486 26.8489 15.3925 26.8661L17.2231 27.583C17.3461 27.631 17.479 27.5404 17.479 27.4083Z" fill="#EF5227"/>
<path d="M14.3877 23.0732V27.2067L13.4249 27.5836C13.3021 27.6314 13.1689 27.5414 13.1689 27.4092V23.0732H14.3877Z" fill="#D83724"/>
<path d="M36.268 16.3122V18.4263L36.1743 19.3638C36.1743 19.7266 35.8799 20.02 35.518 20.02L10.5322 19.9263C10.1694 19.9263 9.87598 19.6328 9.87598 19.27L9.68848 16.3122L22.5149 15.6992L36.268 16.3122Z" fill="#FDCD08"/>
<path d="M42.7095 18.0763C42.1226 19.5229 41.5321 20.9503 40.9451 22.3971C40.5943 23.2619 41.2245 24.2095 42.1505 24.2095L43.2357 24.3032H45.8757C46.8017 24.3032 47.4319 23.3556 47.0811 22.4907L45.8571 19.4736L45.0873 18.0762L42.7095 18.0763Z" fill="#FDCD08"/>
<path d="M43.6542 20.008C44.4256 20.0782 45.2347 19.8757 45.8567 19.4749L45.1986 17.8301L44.1109 18.1552C44.1109 18.1551 44.111 18.155 44.111 18.1549L42.6932 17.9657C42.5142 18.4073 42.2538 19.0343 42.0748 19.4759C42.0748 19.4759 42.0748 19.4759 42.0748 19.476C41.667 20.4813 41.2591 21.4866 40.8513 22.4919C40.5007 23.3572 41.1307 24.3041 42.056 24.3041H43.556C42.6307 24.3041 42.0007 23.3572 42.3513 22.4919C42.6561 21.7411 42.9606 20.9904 43.2652 20.2397C43.3283 20.084 43.4869 19.9928 43.6542 20.008Z" fill="#FAAB18"/>
<path d="M46.13 16.4288C46.13 15.4708 45.5189 14.6567 44.6688 14.3622C44.4484 14.2858 44.128 14.4217 43.882 14.4217C42.6868 14.4217 41.9512 15.2224 41.9512 16.4289C41.9512 17.6354 42.8454 18.3592 44.0406 18.3592C44.2867 18.3592 44.4484 18.5718 44.6688 18.4955C45.5189 18.201 46.13 17.3869 46.13 16.4288Z" fill="#FDCD08"/>
<path d="M44.6686 18.4957C44.4483 18.5726 44.2111 18.6138 43.9655 18.6138C42.7702 18.6138 41.8018 17.6351 41.8018 16.4285C41.8018 15.2229 42.7702 14.2441 43.9655 14.2441C44.2111 14.2441 44.4483 14.2854 44.6686 14.3623C43.8183 14.6566 43.208 15.4713 43.208 16.4285C43.208 17.3866 43.8183 18.2013 44.6686 18.4957Z" fill="#FAAB18"/>
<path d="M44.1391 9.21523L37.9553 11.356L36.2679 11.1829L24.2649 16.0953C23.4312 16.3839 22.5246 16.3839 21.6909 16.0953L9.68824 11.3744L8.00071 11.356L1.81657 9.21523C1.11062 8.97082 1.11062 7.97246 1.81657 7.72814L21.9254 0.766894C22.6071 0.530827 23.3485 0.530827 24.0303 0.766894L44.1391 7.72814C44.845 7.97246 44.845 8.97082 44.1391 9.21523Z" fill="#868491"/>
<path d="M37.9556 10.7216V11.3563L24.265 16.0955C23.4316 16.3842 22.525 16.3842 21.6906 16.0955L8.00098 11.3563V10.7216C8.00098 9.38379 8.95631 8.2419 10.2735 8.00471C14.4586 7.25469 18.7327 6.875 22.9778 6.875C27.2229 6.875 31.4979 7.25469 35.683 8.00471C36.3205 8.12002 36.899 8.45565 37.3134 8.9516C37.7259 9.44379 37.9556 10.0738 37.9556 10.7216Z" fill="#77777F"/>
<path d="M36.268 10.7216V16.312H9.96973L9.87598 10.9091C9.87598 10.3897 10.2482 9.94534 10.7591 9.85346C11.027 9.80546 11.1076 9.57155 11.3759 9.52664C15.2164 8.88435 19.0975 8.5625 22.9778 8.5625C27.13 8.5625 31.2823 8.93094 35.3849 9.66596C35.6399 9.71189 35.8611 9.84596 36.0177 10.0335C36.1752 10.221 36.268 10.4619 36.268 10.7216Z" fill="#868491"/>
<path d="M36.268 18.4263V19.4575C36.268 19.8204 35.9736 20.1138 35.6117 20.1138H10.3447C9.98229 20.1138 9.68848 19.82 9.68848 19.4575V16.3122L10.5322 15.6992L11.376 16.3122V17.9575C11.376 18.2164 11.5859 18.4263 11.8448 18.4263H36.268Z" fill="#FAAB18"/>
<path d="M11.376 9.52734V16.3122H9.68848V10.7217C9.68848 10.2024 10.0607 9.75797 10.5716 9.6661C10.8397 9.61828 11.1079 9.57141 11.376 9.52734Z" fill="#77777F"/>
<path d="M43.0194 43.2346C42.124 41.0731 42.124 38.6446 43.0194 36.4832L43.3047 35.2158H4.96839C4.96839 35.2158 0.652908 39.9074 5.2488 44.5032L43.5542 44.7905L43.0194 43.2346Z" fill="#F1F2F2"/>
<path d="M43.5542 44.7897L5.24911 44.5029C0.652465 39.9072 4.96879 35.2158 4.96879 35.2158L43.4889 35.287L43.0198 36.4824C42.8463 36.9005 42.7066 37.328 42.6007 37.7612H7.41665C6.24756 37.7612 5.29692 38.7118 5.29692 39.88C5.29692 41.049 6.24756 41.9997 7.41665 41.9997H42.6119C42.717 42.4178 42.8529 42.8313 43.0198 43.2344L43.5542 44.7897Z" fill="#DEE1E1"/>
<path d="M42.9085 46.147L8.24836 46.0832C4.60658 46.0832 1.40253 44.028 1.40253 40.3863C1.40253 39.2305 1.11987 37.639 1.64225 36.6944C2.76586 34.6628 4.93059 33.2871 7.41651 33.2871H43.5599C44.3814 33.2871 45.0473 33.953 45.0473 34.7745C45.0473 35.5959 44.3814 36.2618 43.5599 36.2618H34.6047L32.2647 36.7798L30.2952 36.2618H7.41651C5.41763 36.2618 3.79722 37.8823 3.79722 39.8811C3.79722 41.88 5.41763 43.5004 7.41651 43.5004H43.5599C44.3814 43.5004 45.0473 44.1663 45.0473 44.9878C45.0473 45.0796 45.0389 45.1693 45.0231 45.2565C44.8966 45.9497 43.6382 46.147 42.9085 46.147Z" fill="#EF5227"/>
<path d="M45.0233 45.2555C44.968 45.5593 44.8208 45.8293 44.6118 46.0384C44.3427 46.3074 43.9705 46.4743 43.5599 46.4743H7.41676C3.77451 46.4743 0.822266 43.5221 0.822266 39.8798C0.822266 38.5767 1.20008 37.3617 1.85353 36.3379V38.6611C1.85353 42.3033 4.80577 45.2555 8.44802 45.2555H45.0233Z" fill="#D83724"/>
<path d="M34.6051 40.6309V36.2598H31.7018L30.4141 36.3381L30.4831 40.4434C30.4831 40.5755 30.616 40.6661 30.7389 40.6179L31.7017 40.355L32.382 40.0886C32.4259 40.0714 32.4748 40.0714 32.5187 40.0886L34.3492 40.8054C34.4722 40.8536 34.6051 40.763 34.6051 40.6309Z" fill="#FDCD08"/>
<path d="M31.7021 36.2598V40.3557L30.5518 40.8057C30.429 40.8535 30.2959 40.7635 30.2959 40.6313V36.2598H31.7021Z" fill="#FAAB18"/>
<path d="M47.8524 21.9218L46.2918 18.0748C46.7139 17.5768 46.9696 16.9316 46.9696 16.2271C46.9696 14.8996 46.0638 13.7811 44.8421 13.4655C44.8419 13.2805 44.8423 8.64712 44.8421 8.45062C44.8421 7.81189 44.4521 7.26419 43.8485 7.05522L24.0803 0.21182C23.2647 -0.0706536 22.3665 -0.0705598 21.5509 0.21182L16.629 1.91566C16.2621 2.0426 16.0675 2.44311 16.1946 2.81005C16.3216 3.17718 16.722 3.37144 17.089 3.2445L22.0109 1.54066C22.5296 1.36093 23.1012 1.36093 23.6202 1.54066L43.3883 8.38396C43.4094 8.39128 43.4357 8.40046 43.4357 8.45053C43.4357 8.50059 43.4094 8.50978 43.3883 8.51709L36.5832 10.873V10.6624C36.5832 9.81049 35.9746 9.08298 35.136 8.93269C26.9607 7.46642 18.6703 7.46642 10.495 8.93269C9.65651 9.08307 9.04778 9.81049 9.04778 10.6624V10.873L2.24273 8.51709C2.22163 8.50978 2.19538 8.50059 2.19538 8.45053C2.19538 8.40046 2.22163 8.39128 2.24273 8.38396L13.9313 4.33764C14.2982 4.2107 14.4928 3.8102 14.3657 3.44325C14.2387 3.07621 13.8382 2.88187 13.4713 3.00881L1.78269 7.05522C1.17911 7.26419 0.789107 7.8118 0.789107 8.45062C0.789107 9.08944 1.17911 9.63705 1.78269 9.84602L9.04788 12.3611V19.3199C5.36484 19.6866 2.47898 22.8028 2.47898 26.5807C2.47898 29.1052 3.76807 31.334 5.72213 32.6446C2.45329 33.3669 0 36.2859 0 39.7687C0 43.7924 3.27353 47.0659 7.29716 47.0659H43.4406C44.6485 47.0659 45.6311 46.0833 45.6311 44.8754C45.6311 43.6824 44.6724 42.7098 43.485 42.686C42.7504 40.798 42.7447 38.7425 43.468 36.8519C44.6633 36.8371 45.6311 35.8608 45.6311 34.6621C45.6311 33.4542 44.6485 32.4716 43.4406 32.4716H43.0064C43.1002 32.2279 43.1521 31.9636 43.1521 31.6873C43.1521 30.4794 42.1695 29.4968 40.9616 29.4968H40.9426C40.2614 27.7306 40.2172 25.8194 40.81 24.0343C41.1821 24.4371 41.7056 24.6712 42.2617 24.6712H46.0159C46.6747 24.6712 47.2886 24.3437 47.658 23.795C48.031 23.2413 48.1037 22.5409 47.8524 21.9218ZM45.5633 16.2271C45.5633 17.0236 44.9243 17.6715 44.1389 17.6715C43.3536 17.6715 42.7146 17.0236 42.7146 16.2271C42.7146 15.4307 43.3536 14.7827 44.1389 14.7827C44.9243 14.7827 45.5633 15.4306 45.5633 16.2271ZM43.4358 9.9888V13.4655C42.214 13.7811 41.3083 14.8996 41.3083 16.2271C41.3083 16.9317 41.5639 17.5768 41.986 18.0748L41.4957 19.2833H36.5833V12.3611L43.4358 9.9888ZM10.7433 10.3168C18.7538 8.88038 26.8773 8.88038 34.8878 10.3168C35.0553 10.3469 35.1769 10.4922 35.1769 10.6625V15.4548H30.8443C30.456 15.4548 30.1411 15.7695 30.1411 16.1579C30.1411 16.5464 30.456 16.8611 30.8443 16.8611H35.1769V19.2834H10.4542V16.8611H27.563C27.9513 16.8611 28.2661 16.5464 28.2661 16.1579C28.2661 15.7695 27.9513 15.4548 27.563 15.4548H10.4542V10.6625C10.4542 10.4922 10.5757 10.3469 10.7433 10.3168ZM44.2249 34.662C44.2249 35.0944 43.8731 35.4462 43.4407 35.4462H7.29716C4.9138 35.4462 2.97474 37.3853 2.97474 39.7686C2.97474 42.152 4.9138 44.091 7.29716 44.091H35.0631C35.4514 44.091 35.7662 43.7762 35.7662 43.3878C35.7662 42.9994 35.4514 42.6847 35.0631 42.6847H7.29716C5.68922 42.6847 4.38101 41.3766 4.38101 39.7686C4.38101 38.1607 5.68922 36.8525 7.29716 36.8525H29.4727V40.794C29.4727 41.0264 29.5875 41.2438 29.7796 41.3748C29.9715 41.5058 30.2158 41.5336 30.4322 41.4487L32.3306 40.7053L34.229 41.4487C34.3119 41.4812 34.3988 41.4971 34.4853 41.4971C34.6248 41.4971 34.7632 41.4557 34.8817 41.3748C35.0737 41.2438 35.1886 41.0264 35.1886 40.794V36.8525H41.9759C41.3648 38.7576 41.3692 40.7815 41.9898 42.6848H38.3444C37.9561 42.6848 37.6413 42.9995 37.6413 43.3879C37.6413 43.7763 37.9561 44.0911 38.3444 44.0911H43.4406C43.873 44.0911 44.2248 44.4429 44.2248 44.8753C44.2248 45.3077 43.873 45.6595 43.4406 45.6595H7.29716C4.04895 45.6596 1.40627 43.0169 1.40627 39.7686C1.40627 36.5203 4.04895 33.8778 7.29716 33.8778H43.4406C43.873 33.8778 44.2249 34.2296 44.2249 34.662ZM30.879 36.8526H33.7823V39.7637L32.587 39.2957C32.4221 39.2311 32.2391 39.2311 32.0742 39.2957L30.879 39.7637V36.8526ZM18.8441 30.903H40.9617C41.3942 30.903 41.7459 31.2549 41.7459 31.6872C41.7459 32.1196 41.3942 32.4715 40.9617 32.4715H9.77614C6.52793 32.4715 3.88526 29.8288 3.88526 26.5805C3.88526 23.3322 6.52793 20.6896 9.77614 20.6896H40.9251C40.7514 21.1559 40.4304 21.817 40.3224 22.2581H9.77614C7.39279 22.2581 5.45372 24.1971 5.45372 26.5805C5.45372 28.9639 7.39279 30.9028 9.77614 30.9028H15.5628C15.9511 30.9028 16.2659 30.5881 16.2659 30.1997C16.2659 29.8113 15.9511 29.4965 15.5628 29.4965H9.77614C8.16821 29.4965 6.85999 28.1884 6.85999 26.5805C6.85999 24.9726 8.16821 23.6644 9.77614 23.6644H12.3469V27.5721C12.3469 27.8045 12.4617 28.0219 12.6538 28.1529C12.8457 28.2839 13.0901 28.3116 13.3064 28.2268L15.2048 27.4834L17.1032 28.2268C17.1861 28.2593 17.273 28.2752 17.3595 28.2752C17.499 28.2752 17.6374 28.2338 17.7559 28.1529C17.9479 28.0219 18.0628 27.8045 18.0628 27.5721V23.6644H39.4492C38.8334 25.5685 38.8334 27.5925 39.4492 29.4966H18.8441C18.4558 29.4966 18.1409 29.8114 18.1409 30.1998C18.1409 30.5882 18.4558 30.903 18.8441 30.903ZM13.7532 23.6644H16.6565V26.5417L15.4612 26.0737C15.2963 26.0091 15.1133 26.0091 14.9484 26.0737L13.7532 26.5417V23.6644ZM46.4916 23.0094C46.44 23.0862 46.2901 23.2648 46.0159 23.2648H42.2617C41.9876 23.2648 41.8378 23.0862 41.786 23.0094C41.6732 22.8419 41.6522 22.6381 41.7283 22.4504L43.1668 18.9045C43.4701 19.0165 43.7975 19.0777 44.1388 19.0777C44.4802 19.0777 44.8076 19.0165 45.1108 18.9045L46.5493 22.4504C46.6255 22.6381 46.6045 22.8419 46.4916 23.0094Z" fill="black"/>
</svg>
