<svg width="77" height="77" viewBox="0 0 77 77" fill="none" xmlns="http://www.w3.org/2000/svg">
<g clip-path="url(#clip0_320_8331)">
<path d="M41.9795 2.50346L46.8406 6.89966L53.2484 5.52296C55.9276 4.94741 58.6072 6.49451 59.4482 9.10241L61.4599 15.3402L67.6976 17.3518C70.3057 18.1929 71.8528 20.8725 71.2771 23.5516L69.9004 29.9595L74.2966 34.8205C76.1347 36.8529 76.1347 39.9471 74.2966 41.9794L69.9004 46.8405L71.2771 53.2483C71.8526 55.9275 70.3055 58.6071 67.6976 59.4481L61.4599 61.4598L59.4482 67.6975C58.6072 70.3056 55.9276 71.8527 53.2484 71.277L46.8406 69.9003L41.9795 74.2965C39.9472 76.1346 36.853 76.1346 34.8206 74.2965L29.9596 69.9003L23.5517 71.277C20.8726 71.8525 18.193 70.3054 17.3519 67.6975L15.3403 61.4598L9.10252 59.4481C6.49447 58.6071 4.94737 55.9275 5.52307 53.2483L6.89977 46.8405L2.50357 41.9794C0.665475 39.9471 0.665475 36.8529 2.50357 34.8205L6.89977 29.9595L5.52307 23.5516C4.94752 20.8725 6.49462 18.1929 9.10252 17.3518L15.3403 15.3402L17.3519 9.10241C18.193 6.49436 20.8726 4.94726 23.5517 5.52296L29.9596 6.89966L34.8206 2.50346C36.853 0.665513 39.9472 0.665513 41.9795 2.50346Z" fill="#FFB357"/>
<path d="M38.3999 66.5976C22.8516 66.5976 10.2021 53.9482 10.2021 38.3999C10.2021 22.8516 22.8516 10.2021 38.3999 10.2021C53.9482 10.2021 66.5976 22.8516 66.5976 38.3999C66.5976 53.9482 53.9482 66.5976 38.3999 66.5976Z" fill="#FCE3A0"/>
<path d="M25.5021 38.4C25.5021 25.5021 34.2069 14.5997 46.0499 11.2572C43.6163 10.5704 41.0502 10.2021 38.3999 10.2021C22.8516 10.2021 10.2021 22.8516 10.2021 38.3999C10.2021 53.9481 22.8516 66.5978 38.3999 66.5978C41.0502 66.5978 43.6163 66.2295 46.0499 65.5427C34.2069 62.2004 25.5021 51.2979 25.5021 38.4Z" fill="#FFCE71"/>
<path d="M26.5191 40.7254C28.9391 40.7327 30.9056 39.1763 30.9113 37.2491C30.9171 35.322 28.96 33.7538 26.54 33.7465C24.12 33.7393 22.1535 35.2957 22.1477 37.2228C22.142 39.15 24.0991 40.7182 26.5191 40.7254Z" fill="#FF8E9E"/>
<path d="M50.2807 33.8307C47.8607 33.8234 45.8943 35.3798 45.8885 37.307C45.8827 39.2342 47.8398 40.8023 50.2598 40.8096C52.6798 40.8169 54.6463 39.2605 54.6521 37.3333C54.6579 35.4061 52.7007 33.838 50.2807 33.8307Z" fill="#FF8E9E"/>
<path d="M28.7246 30.8999C28.1033 30.8999 27.5996 31.4036 27.5996 32.0249V33.5249C27.5996 34.1462 28.1033 34.6499 28.7246 34.6499C29.3459 34.6499 29.8496 34.1462 29.8496 33.5249V32.0249C29.8496 31.4036 29.3459 30.8999 28.7246 30.8999Z" fill="#313D40"/>
<path d="M47.9248 30.8999C47.3035 30.8999 46.7998 31.4036 46.7998 32.0249V33.5249C46.7998 34.1462 47.3035 34.6499 47.9248 34.6499C48.5461 34.6499 49.0498 34.1462 49.0498 33.5249V32.0249C49.0498 31.4036 48.5461 30.8999 47.9248 30.8999Z" fill="#313D40"/>
<path d="M41.2845 35.2101C40.724 34.9417 40.0523 35.1792 39.7844 35.7397C39.5345 36.2623 38.9907 36.6 38.3993 36.6C37.8078 36.6 37.2641 36.2623 37.0142 35.7397C36.7461 35.1792 36.0743 34.9422 35.514 35.2101C34.9535 35.4781 34.7163 36.1498 34.9844 36.7102C35.6058 38.0101 36.9462 38.85 38.3993 38.85C39.8523 38.85 41.1927 38.0101 41.8142 36.7102C42.0822 36.1498 41.8451 35.4781 41.2845 35.2101Z" fill="#313D40"/>
<path d="M29.8496 33.5249V32.0249C29.8496 31.4036 29.3459 30.8999 28.7246 30.8999C28.1033 30.8999 27.5996 31.4036 27.5996 32.0249V33.5249C27.5996 34.1462 28.1033 34.6499 28.7246 34.6499C29.3459 34.6499 29.8496 34.1462 29.8496 33.5249Z" fill="black"/>
<path d="M49.0498 33.5249V32.0249C49.0498 31.4036 48.5461 30.8999 47.9248 30.8999C47.3035 30.8999 46.7998 31.4036 46.7998 32.0249V33.5249C46.7998 34.1462 47.3035 34.6499 47.9248 34.6499C48.5461 34.6499 49.0498 34.1462 49.0498 33.5249Z" fill="black"/>
<path d="M38.4002 38.85C39.8533 38.85 41.1937 38.0101 41.8151 36.7102C42.0832 36.1497 41.846 35.478 41.2855 35.2101C40.7248 34.9417 40.0532 35.1792 39.7853 35.7397C39.5354 36.2623 38.9917 36.6 38.4002 36.6C37.8088 36.6 37.265 36.2623 37.0151 35.7397C36.7472 35.1792 36.0754 34.9422 35.515 35.2101C34.9544 35.4781 34.7173 36.1498 34.9853 36.7102C35.6068 38.0101 36.9472 38.85 38.4002 38.85Z" fill="black"/>
<path d="M24.5934 15.1193C25.1273 14.8014 25.3025 14.111 24.9845 13.5771C24.6665 13.0433 23.976 12.8684 23.4423 13.1861C19.1487 15.7424 15.551 19.3761 13.0379 23.694C10.4468 28.1462 9.07715 33.2313 9.07715 38.3999C9.07715 54.5686 22.2312 67.7226 38.3999 67.7226C54.5686 67.7226 67.7226 54.5686 67.7226 38.3999C67.7226 22.2312 54.5686 9.07715 38.3999 9.07715C38.3997 9.07715 38.3996 9.07715 38.3993 9.07715C34.6856 9.07715 31.0637 9.7658 27.6341 11.124C27.0564 11.3528 26.7737 12.0066 27.0024 12.5843C27.2313 13.1619 27.8852 13.4447 28.4627 13.2159C31.6274 11.9625 34.9707 11.327 38.3999 11.3271C53.3279 11.3271 65.4726 23.4719 65.4726 38.3999C65.4726 53.3279 53.3279 65.4726 38.3999 65.4726C23.4719 65.4726 11.3271 53.3279 11.3271 38.3999C11.3271 28.9119 16.4105 19.9913 24.5934 15.1193Z" fill="black"/>
<path d="M76.8 38.4C76.8 36.7952 76.2072 35.256 75.1308 34.0658L71.1212 29.6322C72.4962 23.2329 72.5219 23.3304 72.5219 22.4271C72.5219 19.6148 70.7218 17.145 68.0429 16.281L62.3535 14.4465L60.5189 8.75715C59.6549 6.07815 57.1848 4.2783 54.3726 4.2783C53.4582 4.2783 53.508 4.3167 47.1675 5.67885L42.7341 1.6692C41.544 0.5928 40.0049 0 38.4 0C36.8367 0 35.2875 0.5643 34.0658 1.6692L29.6322 5.67885C23.2328 4.30395 23.33 4.2783 22.4271 4.2783C19.6148 4.2783 17.1449 6.0783 16.2809 8.75715L14.4465 14.4465L8.75715 16.2812C6.07815 17.1452 4.2783 19.6152 4.2783 22.4274C4.2783 23.342 4.31685 23.2925 5.67885 29.6325L1.6692 34.0659C0.5928 35.256 0 36.7952 0 38.4C0 40.0049 0.5928 41.544 1.6692 42.7342L5.67885 47.1678C4.30395 53.5673 4.2783 53.4701 4.2783 54.3729C4.2783 57.1852 6.0783 59.6552 8.75715 60.5192L14.4465 62.3535L16.2812 68.0429C17.1452 70.7218 19.6152 72.5217 22.4274 72.5217C23.342 72.5217 23.2925 72.4832 29.6325 71.1212L34.0659 75.1308C35.256 76.2072 36.7952 76.8 38.4 76.8C40.0049 76.8 41.544 76.2072 42.7342 75.1308L47.1678 71.1212C53.5638 72.4953 53.4692 72.5217 54.3731 72.5217C57.1853 72.5217 59.6552 70.7217 60.5192 68.0427L60.8063 67.1522C60.9969 66.5609 60.6722 65.927 60.0809 65.7363C59.4891 65.5457 58.8557 65.8706 58.6649 66.4619L58.3779 67.3523C57.8147 69.0986 56.2053 70.2719 54.3732 70.2719C53.7654 70.2719 54.0656 70.3019 47.077 68.8004C46.7234 68.7245 46.3547 68.8232 46.0862 69.0658L41.2253 73.4621C40.4492 74.1636 39.446 74.55 38.4 74.55C37.354 74.55 36.3509 74.1636 35.5752 73.4621L30.7143 69.0658C30.4459 68.8232 30.0771 68.7245 29.7234 68.8004C22.7012 70.3091 23.0244 70.2719 22.4274 70.2719C20.5953 70.2719 18.9858 69.0985 18.4227 67.3524L16.4111 61.1147C16.2999 60.7703 16.0301 60.5004 15.6857 60.3893L9.4479 58.3776C7.7016 57.8145 6.52845 56.2052 6.52845 54.3729C6.52845 53.7651 6.49845 54.0654 7.99995 47.0769C8.076 46.7232 7.97715 46.3544 7.73445 46.086L3.33825 41.2251C2.6364 40.4492 2.25 39.446 2.25 38.4C2.25 37.354 2.6364 36.3509 3.33795 35.5752L7.73415 30.7143C7.97685 30.4459 8.0757 30.0771 7.99965 29.7234C6.49095 22.7012 6.52815 23.0244 6.52815 22.4274C6.52815 20.5953 7.70145 18.9858 9.4476 18.4227L15.6854 16.4111C16.0298 16.2999 16.2996 16.0301 16.4108 15.6857L18.4224 9.4479C18.9855 7.7016 20.5949 6.52845 22.4271 6.52845C23.0349 6.52845 22.7346 6.49845 29.7231 7.99995C30.0768 8.07585 30.4455 7.9773 30.714 7.73445L35.5751 3.33825C36.3692 2.61975 37.3746 2.25 38.4 2.25C39.446 2.25 40.4492 2.6364 41.2248 3.33795L46.0857 7.73415C46.3541 7.97685 46.723 8.0757 47.0766 7.99965C54.099 6.49095 53.7758 6.52815 54.3726 6.52815C56.2049 6.52815 57.8142 7.70145 58.3775 9.4476L60.389 15.6854C60.5 16.0298 60.77 16.2998 61.1143 16.4108L67.3521 18.4224C69.0984 18.9855 70.2717 20.5949 70.2717 22.4271C70.2717 23.0336 70.3027 22.7292 68.8 29.7231C68.724 30.077 68.8229 30.4457 69.0657 30.714L73.4621 35.5749C74.1636 36.3509 74.55 37.354 74.55 38.4C74.55 39.446 74.1636 40.4492 73.4621 41.2248L69.0657 46.0857C68.823 46.3541 68.7242 46.7229 68.8 47.0766L70.1769 53.4843C70.2398 53.7771 70.2717 54.0759 70.2717 54.3725C70.2717 56.2046 69.0984 57.8139 67.3521 58.3772L61.1143 60.3888C60.77 60.5 60.5 60.77 60.3888 61.1143L60.0456 62.1789C59.8549 62.7702 60.1799 63.4041 60.7712 63.5948C61.3632 63.7853 61.9963 63.4607 62.187 62.8692L62.3534 62.3534L68.0426 60.5187C70.7215 59.6547 72.5216 57.1847 72.5216 54.3726C72.5216 53.9175 72.4728 53.4597 72.3766 53.0118L71.1209 47.1675L75.1305 42.7341C76.2072 41.544 76.8 40.0049 76.8 38.4Z" fill="black"/>
</g>
<defs>
<clipPath id="clip0_320_8331">
<rect width="76.8" height="76.8" fill="white"/>
</clipPath>
</defs>
</svg>
