<svg width="77" height="77" viewBox="0 0 77 77" fill="none" xmlns="http://www.w3.org/2000/svg">
<g clip-path="url(#clip0_320_8354)">
<path d="M67.5854 23.8469C67.6754 23.3159 67.7249 22.7714 67.7249 22.2149C67.7249 16.8449 63.3719 12.4919 58.0019 12.4919C57.6374 12.4919 57.2774 12.5144 56.9219 12.5534C53.0204 6.4484 46.1834 2.3999 38.4014 2.3999C30.6194 2.3999 23.7824 6.4484 19.8809 12.5534C19.5254 12.5144 19.1654 12.4919 18.8009 12.4919C13.4309 12.4919 9.07787 16.8449 9.07787 22.2149C9.07787 22.7714 9.12737 23.3159 9.21737 23.8469C5.19287 25.7234 2.40137 29.8034 2.40137 34.5359C2.40137 41.0474 7.67987 46.3259 14.1914 46.3259C18.3179 46.3259 21.9479 44.2034 24.0539 40.9919C27.9029 44.3159 32.9174 46.3259 38.4014 46.3259C43.8854 46.3259 48.8999 44.3159 52.7489 40.9919C54.8549 44.2034 58.4849 46.3259 62.6114 46.3259C69.1229 46.3259 74.4014 41.0474 74.4014 34.5359C74.4014 29.8034 71.6099 25.7234 67.5854 23.8469Z" fill="#46CEAC"/>
<path d="M52.2489 23.4208C52.2489 23.9728 52.6269 24.6688 53.0904 24.9688L53.8164 25.4398C57.7059 27.9628 59.7669 32.2408 59.6394 36.5593C59.5764 38.7088 60.1449 40.8298 61.2969 42.6448C62.6484 44.7763 65.3304 45.6373 67.6719 44.6908L69.9249 43.7803C72.6519 41.6203 74.4024 38.2843 74.4024 34.5358C74.4024 29.8018 71.6109 25.7233 67.5864 23.8468C67.6764 23.3158 67.7259 22.7713 67.7259 22.2148C67.7259 16.8448 63.3729 12.4918 58.0029 12.4918C57.6384 12.4918 57.2784 12.5143 56.9229 12.5533C53.8794 7.7923 49.0509 4.2823 43.3809 2.9668C49.6704 7.7953 53.0229 15.5293 52.2489 23.4208Z" fill="#2BA585"/>
<path d="M43.5412 45.7061L46.7572 62.5481C47.4427 66.1376 48.9187 69.5306 51.0772 72.4796L52.2487 74.0801H24.5527L25.7242 72.4796C27.8827 69.5306 29.3587 66.1376 30.0442 62.5481L33.2602 45.7061" fill="#EFB338"/>
<path d="M51.0773 72.48C48.9188 69.531 47.4428 66.138 46.7573 62.5485L43.5413 45.7065H37.9403L41.1563 62.5485C41.2613 63.099 41.3858 63.6465 41.5283 64.1865C42.2528 66.9375 40.9388 69.8175 38.3933 71.088C36.9008 71.832 37.4318 74.0805 39.0983 74.0805H46.6478H52.2488L51.0773 72.48Z" fill="#D39629"/>
<path d="M7.40717 34.4371C7.64567 37.3606 9.58067 39.8836 12.4067 40.7191C14.8922 41.4526 17.6732 40.6726 19.4777 38.8126C19.6592 38.6206 19.8587 38.4046 20.0282 38.2006C20.0477 38.1766 20.0837 38.1736 20.1062 38.1946C20.1242 38.2111 20.1287 38.2381 20.1182 38.2591C17.5442 43.0486 10.5182 42.7621 8.04767 38.0086C7.47017 36.9271 7.21067 35.6491 7.29917 34.4371C7.30817 34.3756 7.39967 34.3696 7.40717 34.4371Z" fill="white"/>
<path d="M34.2467 62.5392C34.0112 61.6107 34.1117 60.4512 34.7342 59.6877C34.7567 59.6622 34.7972 59.6592 34.8227 59.6817C35.1947 60.5682 34.8737 61.7847 34.3532 62.5572C34.3262 62.5977 34.2602 62.5857 34.2467 62.5392Z" fill="white"/>
<path d="M31.2579 70.4474C31.6104 69.4529 32.1804 68.0849 32.5674 67.0934C33.0129 65.9714 33.4209 64.8659 33.9774 63.7799C34.0014 63.7304 34.0839 63.7499 34.0809 63.8054C34.0689 65.0444 33.7299 66.2414 33.2559 67.3739C33.0174 67.9379 32.7429 68.4869 32.4279 69.0119C32.3664 69.1289 31.2489 70.8704 31.2579 70.4474Z" fill="white"/>
<path d="M55.9463 45.9344C57.7118 46.9334 59.7143 47.5109 61.7378 47.6054C72.7958 48.0674 79.3793 35.4494 72.2198 26.8769C71.3828 25.8974 70.3598 25.0559 69.2618 24.3869C69.1628 24.3254 69.0578 24.2729 68.9558 24.2159L68.6483 24.0494L68.4938 23.9669C68.2928 23.8739 68.0978 23.8139 67.8788 23.7419C67.9418 23.4134 67.9913 23.0804 68.0213 22.7474C68.5943 16.6289 63.4028 11.4269 57.3578 11.6954C48.5213 -2.15706 28.5293 -2.37006 19.0748 10.8689C17.6573 10.8224 16.2263 11.0459 14.8808 11.5229C10.1738 13.1534 7.07028 17.9264 7.32078 22.8329C4.06878 24.7259 1.65378 27.9914 0.870776 31.6874C-0.816724 39.2339 4.33578 46.7909 11.9588 48.0164C16.5173 48.8144 21.3473 47.0384 24.3893 43.5974C28.3253 46.4399 33.1553 48.0254 38.0063 48.0539L40.7888 62.6204C40.8953 63.1769 41.0228 63.7379 41.1653 64.2839C41.8403 66.8474 40.6028 69.5684 38.2268 70.7549C38.0408 70.8479 37.9658 71.0729 38.0588 71.2574C38.1248 71.3894 38.2568 71.4644 38.3948 71.4644C38.4518 71.4644 38.5088 71.4524 38.5613 71.4254C39.3233 71.0444 39.9818 70.5254 40.5173 69.9104H47.6693C47.9903 70.5794 48.3383 71.2349 48.7163 71.8724C48.8003 72.0179 48.8918 72.1679 48.9878 72.3209C48.9218 72.3194 48.8543 72.3194 48.7883 72.3179C41.8523 72.2084 34.8623 72.1694 27.9098 72.2684C29.2973 69.9929 30.3353 67.4984 30.9353 64.9049C31.1003 64.1939 31.2353 63.4619 31.3373 62.7374C31.6658 60.3869 31.9673 58.0334 32.2418 55.6724C32.5013 53.4509 32.7323 51.2249 32.9093 48.9884C32.9198 48.8654 32.8433 48.7469 32.7203 48.7094C32.5778 48.6659 32.4278 48.7454 32.3843 48.8879C31.0733 53.1719 29.9498 57.4979 28.8788 61.8419C28.5128 63.3854 28.0283 64.9079 27.3818 66.3569C26.5418 68.2814 25.4528 70.0694 24.1538 71.7164C24.1538 71.7164 23.3078 72.8219 23.1998 72.9644C18.5963 73.2239 14.0003 73.6064 9.41778 74.1344C9.29928 74.1494 9.20178 74.2424 9.18528 74.3669C9.16578 74.5154 9.26928 74.6504 9.41778 74.6699C14.1833 75.2819 18.9623 75.6089 23.7518 75.8594C38.0843 76.4609 52.5143 76.7144 66.7523 74.6699C66.8648 74.6519 66.9578 74.5634 66.9758 74.4464C66.9998 74.2979 66.8993 74.1599 66.7523 74.1344C62.3348 73.4399 57.9008 73.0949 53.4518 72.8489C53.1308 72.4304 52.4843 71.5874 52.4843 71.5874C50.4968 69.0269 49.0388 66.0809 48.2078 62.9444C46.9538 57.7034 45.6968 52.4504 44.2553 47.2529C47.2463 46.4489 50.0783 45.0569 52.5218 43.1609C53.4983 44.2679 54.6623 45.2099 55.9463 45.9344ZM56.2493 13.0364C56.4128 13.2779 56.7038 13.4189 57.0113 13.3754C57.6953 13.2794 58.3838 13.2674 59.0738 13.3304C59.7623 13.3904 60.4448 13.5299 61.1048 13.7474C65.0828 15.0404 67.7138 19.0949 67.3748 23.2589L67.3508 23.5319L67.3358 23.6684C67.3208 23.7599 67.3208 23.8844 67.3463 23.9729C67.6478 24.1874 68.0093 24.3899 68.3288 24.5984C68.5898 24.7694 68.8958 24.9749 69.1403 25.1699C70.0043 25.8239 70.7933 26.6309 71.4278 27.5084C75.7223 33.2879 73.4393 41.7149 66.6938 44.3264C63.6848 45.5084 60.3773 45.1739 57.6938 43.6589L57.9023 43.3364C61.8488 37.2449 60.1058 29.0759 54.0173 25.1249L53.1518 24.5639C52.7798 24.3224 52.5758 23.8979 52.6193 23.4569C53.0063 19.5209 52.3778 15.5234 50.8058 11.8949C49.7183 9.38544 48.1913 7.08744 46.3163 5.11044C50.1953 6.58044 53.7068 9.22194 56.2493 13.0364ZM41.8913 64.0919C41.8403 63.8999 41.7953 63.7034 41.7488 63.5084H45.5933C45.7433 64.3349 45.9353 65.1524 46.1663 65.9594H42.0923C42.1178 65.3399 42.0548 64.7114 41.8913 64.0919ZM41.5838 62.7584C41.5643 62.6654 41.5433 62.5724 41.5253 62.4794L41.1113 60.3089H45.1103C45.2288 61.1264 45.3473 61.9424 45.4688 62.7599H41.5838V62.7584ZM40.4993 57.1064H44.6588C44.7713 57.9239 44.8868 58.7399 45.0038 59.5574H40.9688L40.4993 57.1064ZM40.3568 56.3564L39.8888 53.9069H44.2298C44.3363 54.7244 44.4443 55.5404 44.5553 56.3564H40.3568ZM44.1323 53.1569H39.7448L39.2768 50.7059H43.8293C43.9268 51.5234 44.0288 52.3409 44.1323 53.1569ZM41.0783 69.1589C41.5538 68.4164 41.8748 67.5824 42.0158 66.7079H46.3943C46.6613 67.5389 46.9703 68.3579 47.3228 69.1589H41.0783ZM43.7378 49.9559H39.1328L38.7683 48.0449C40.3463 48.0074 41.9198 47.8049 43.4558 47.4494C43.5473 48.2864 43.6403 49.1219 43.7378 49.9559ZM25.2563 39.6014C24.4313 38.8694 23.1098 39.0524 22.5173 39.9839C21.6668 41.2604 20.5178 42.3344 19.1978 43.1054C12.6758 46.9019 4.42728 42.2789 4.25178 34.7384C4.10778 30.8504 6.47028 27.0854 10.0028 25.4399C10.6973 25.1084 11.1113 24.3434 10.9673 23.5514C10.6388 21.7319 10.9643 19.8119 11.8838 18.2084C13.3988 15.4649 16.5818 13.8224 19.7018 14.1629C20.2973 14.2364 20.9078 13.9679 21.2438 13.4249C26.4278 5.05344 36.2138 2.12094 44.7008 4.57194C47.0108 6.70194 48.8648 9.30294 50.1173 12.1934C51.6398 15.7049 52.2473 19.5749 51.8738 23.3834C51.8033 24.1049 52.1363 24.7979 52.7453 25.1924L53.6108 25.7534C59.3528 29.4794 60.9953 37.1834 57.2738 42.9269L57.0533 43.2674C55.7993 42.4379 54.7133 41.3369 53.8988 40.0004C53.3588 39.3524 52.3853 39.2834 51.7553 39.8429C49.8923 41.3999 47.7563 42.6134 45.4838 43.4189C38.6873 45.8999 30.6683 44.3999 25.2563 39.6014Z" fill="black"/>
<path d="M40.1874 28.1521C39.7329 28.0081 39.2769 27.8881 38.8194 27.7786C38.6859 23.3971 33.4629 21.2011 29.9934 23.8726C29.6784 23.3791 29.3109 22.9171 28.8984 22.5016C24.8244 18.3391 17.5674 19.8436 15.7749 25.4341C15.5514 26.1301 15.4419 26.8516 15.4374 27.5626C15.0699 27.6166 14.7039 27.6751 14.3364 27.7366C13.6179 27.8566 12.9009 27.9886 12.1884 28.1521C12.0894 28.1746 12.0084 28.2526 11.9829 28.3576C11.9484 28.5061 12.0399 28.6531 12.1884 28.6876C12.9009 28.8511 13.6179 28.9816 14.3364 29.1031C15.0519 29.2231 15.7674 29.3296 16.4844 29.4241C16.9434 29.4841 17.3709 29.1676 17.4429 28.7071C17.6679 26.8276 18.7059 25.2211 20.2749 24.3691C23.4744 22.5751 27.5439 24.7141 27.6924 28.4206C27.6699 29.3986 28.4409 30.2131 29.4204 30.2446C30.4044 30.2746 31.2279 29.5021 31.2579 28.5181C31.2594 28.4866 31.2579 28.4536 31.2594 28.4221H31.2609C31.2594 28.4011 31.2609 28.3801 31.2609 28.3591C31.2624 28.2721 31.2654 28.1851 31.2639 28.0981C31.3524 26.8291 32.4369 25.7431 33.7239 25.6321C35.3484 25.4401 36.9129 26.7316 37.1409 28.4221L37.1844 28.7041L37.1889 28.7326C37.2609 29.0926 37.6119 29.3266 37.9719 29.2531C38.7189 29.0956 39.4554 28.9216 40.1874 28.6891C40.4469 28.6126 40.4379 28.2286 40.1874 28.1521Z" fill="black"/>
</g>
<defs>
<clipPath id="clip0_320_8354">
<rect width="76.8" height="76.8" fill="white"/>
</clipPath>
</defs>
</svg>
