<svg width="18" height="18" viewBox="0 0 18 18" fill="none" xmlns="http://www.w3.org/2000/svg">
<g id="graduation-hat-02">
<path id="Icon" d="M12.75 10.8757V8.62148C12.75 8.48687 12.75 8.41957 12.7295 8.36014C12.7114 8.3076 12.6818 8.25974 12.6429 8.22003C12.5989 8.17512 12.5387 8.14502 12.4183 8.08482L9 6.37566M3 7.12566V12.2306C3 12.5096 3 12.649 3.04351 12.7711C3.08198 12.8791 3.14468 12.9768 3.22678 13.0567C3.31966 13.1472 3.44645 13.2053 3.70001 13.3215L8.50002 15.5215C8.68394 15.6058 8.7759 15.6479 8.87171 15.6646C8.9566 15.6793 9.0434 15.6793 9.1283 15.6646C9.2241 15.6479 9.31606 15.6058 9.49999 15.5215L14.3 13.3215C14.5535 13.2053 14.6803 13.1472 14.7732 13.0567C14.8553 12.9768 14.918 12.8791 14.9565 12.7711C15 12.649 15 12.5096 15 12.2306V7.12566M1.5 6.37566L8.73167 2.75982C8.83006 2.71063 8.87925 2.68603 8.93085 2.67635C8.97655 2.66778 9.02345 2.66778 9.06915 2.67635C9.12075 2.68603 9.16994 2.71063 9.26833 2.75982L16.5 6.37566L9.26833 9.99149C9.16994 10.0407 9.12075 10.0653 9.06915 10.075C9.02345 10.0835 8.97655 10.0835 8.93085 10.075C8.87925 10.0653 8.83006 10.0407 8.73167 9.99149L1.5 6.37566Z" stroke="#00BA7C" stroke-width="1.5" stroke-linecap="round" stroke-linejoin="round"/>
</g>
</svg>
