<svg width="18" height="18" viewBox="0 0 18 18" fill="none" xmlns="http://www.w3.org/2000/svg">
<g id="graduation-hat-01">
<path id="Icon" d="M3.75 7.50066V12.009C3.75 12.2782 3.75 12.4128 3.79099 12.5317C3.82724 12.6368 3.8864 12.7325 3.96419 12.8119C4.05215 12.9017 4.17255 12.9619 4.41334 13.0823L8.46334 15.1073C8.66011 15.2057 8.75851 15.2549 8.8617 15.2743C8.9531 15.2914 9.0469 15.2914 9.1383 15.2743C9.24149 15.2549 9.33989 15.2057 9.53666 15.1073L13.5867 13.0823C13.8275 12.9619 13.9479 12.9017 14.0358 12.8119C14.1136 12.7325 14.1728 12.6368 14.209 12.5317C14.25 12.4128 14.25 12.2782 14.25 12.009V7.50066M1.5 6.37566L8.73167 2.75982C8.83006 2.71063 8.87925 2.68603 8.93085 2.67635C8.97655 2.66778 9.02345 2.66778 9.06915 2.67635C9.12075 2.68603 9.16994 2.71063 9.26833 2.75982L16.5 6.37566L9.26833 9.9915C9.16994 10.0407 9.12075 10.0653 9.06915 10.075C9.02345 10.0835 8.97655 10.0835 8.93085 10.075C8.87925 10.0653 8.83006 10.0407 8.73167 9.9915L1.5 6.37566Z" stroke="#00BA7C" stroke-width="1.5" stroke-linecap="round" stroke-linejoin="round"/>
</g>
</svg>
