<svg width="18" height="18" viewBox="0 0 18 18" fill="none" xmlns="http://www.w3.org/2000/svg">
<g id="headphones-02">
<path id="Icon" d="M16.5 12.75V9.75C16.5 5.60786 13.1421 2.25 9 2.25C4.85786 2.25 1.5 5.60786 1.5 9.75V12.75M5.625 15.75C4.58947 15.75 3.75 14.9105 3.75 13.875V11.625C3.75 10.5895 4.58947 9.75 5.625 9.75C6.66053 9.75 7.5 10.5895 7.5 11.625V13.875C7.5 14.9105 6.66053 15.75 5.625 15.75ZM12.375 15.75C11.3395 15.75 10.5 14.9105 10.5 13.875V11.625C10.5 10.5895 11.3395 9.75 12.375 9.75C13.4105 9.75 14.25 10.5895 14.25 11.625V13.875C14.25 14.9105 13.4105 15.75 12.375 15.75Z" stroke="#00BA7C" stroke-width="1.5" stroke-linecap="round" stroke-linejoin="round"/>
</g>
</svg>
