<svg width="21" height="20" viewBox="0 0 21 20" fill="none" xmlns="http://www.w3.org/2000/svg">
<g id="home-line">
<path id="Icon" d="M7.16667 14.1663H13.8333M9.68141 2.30297L4.02949 6.6989C3.65168 6.99276 3.46278 7.13968 3.32669 7.32368C3.20614 7.48667 3.11633 7.67029 3.06169 7.86551C3 8.0859 3 8.32521 3 8.80384V14.833C3 15.7664 3 16.2331 3.18166 16.5896C3.34144 16.9032 3.59641 17.1582 3.91002 17.318C4.26654 17.4996 4.73325 17.4996 5.66667 17.4996H15.3333C16.2668 17.4996 16.7335 17.4996 17.09 17.318C17.4036 17.1582 17.6586 16.9032 17.8183 16.5896C18 16.2331 18 15.7664 18 14.833V8.80384C18 8.32521 18 8.0859 17.9383 7.86551C17.8837 7.67029 17.7939 7.48667 17.6733 7.32368C17.5372 7.13968 17.3483 6.99276 16.9705 6.69891L11.3186 2.30297C11.0258 2.07526 10.8794 1.9614 10.7178 1.91763C10.5752 1.87902 10.4248 1.87902 10.2822 1.91763C10.1206 1.9614 9.97418 2.07526 9.68141 2.30297Z" stroke="#667085" stroke-width="1.66667" stroke-linecap="round" stroke-linejoin="round"/>
</g>
</svg>
