<svg width="48" height="48" viewBox="0 0 48 48" fill="none" xmlns="http://www.w3.org/2000/svg">
<path d="M0 24C0 10.7452 10.7452 0 24 0C37.2548 0 48 10.7452 48 24C48 37.2548 37.2548 48 24 48C10.7452 48 0 37.2548 0 24Z" fill="#F5FAFF"/>
<path d="M21 30.5H27M19 27H29M17 14H31C32.1046 14 33 14.9949 33 16.2222V31.7778C33 33.0051 32.1046 34 31 34H17C15.8954 34 15 33.0051 15 31.7778V16.2222C15 14.9949 15.8954 14 17 14ZM23.9976 18.2119C23.2978 17.4328 22.1309 17.2232 21.2541 17.9367C20.3774 18.6501 20.2539 19.843 20.9425 20.6868C21.631 21.5306 23.9976 23.5 23.9976 23.5C23.9976 23.5 26.3642 21.5306 27.0527 20.6868C27.7413 19.843 27.6329 18.6426 26.7411 17.9367C25.8492 17.2307 24.6974 17.4328 23.9976 18.2119Z" stroke="#2A94F1" stroke-width="1.7" stroke-linecap="round" stroke-linejoin="round"/>
</svg>
