<svg width="13" height="14" viewBox="0 0 13 14" fill="none" xmlns="http://www.w3.org/2000/svg">
<path d="M4.934 0.442C6.06333 0.442 7.09467 0.568 8.028 0.819999C8.96133 1.072 9.96 1.436 11.024 1.912V3.004C8.91467 1.94933 6.894 1.422 4.962 1.422C4.46733 1.422 4.08467 1.55267 3.814 1.814C3.54333 2.066 3.408 2.42067 3.408 2.878V4.012H5.018V4.95H3.408V13H2.316V4.95H0.692V4.012H2.316V2.85C2.316 2.13133 2.554 1.55267 3.03 1.114C3.51533 0.666 4.15 0.442 4.934 0.442ZM10.8651 7.148H7.50508C6.98241 7.148 6.72108 7.358 6.72108 7.778C6.72108 8.02067 6.78641 8.24 6.91708 8.436C7.04774 8.62267 7.20174 8.758 7.37908 8.842C7.77108 8.702 8.22374 8.632 8.73708 8.632C9.50241 8.632 10.0904 8.81867 10.5011 9.192C10.9117 9.556 11.1171 9.99467 11.1171 10.508C11.1171 10.816 11.0657 11.0773 10.9631 11.292H9.88508C10.0157 11.1147 10.0811 10.872 10.0811 10.564C10.0811 10.2653 9.96441 10.0227 9.73108 9.836C9.50708 9.64 9.17108 9.542 8.72308 9.542C8.10708 9.542 7.62641 9.67733 7.28108 9.948C6.93574 10.2187 6.76308 10.5453 6.76308 10.928C6.76308 11.3947 6.96374 11.7773 7.36508 12.076C7.76641 12.3653 8.37774 12.51 9.19908 12.51C9.76841 12.51 10.3517 12.426 10.9491 12.258V13.196C10.3051 13.3547 9.69374 13.434 9.11508 13.434C8.01375 13.434 7.16441 13.182 6.56708 12.678C5.96974 12.174 5.67108 11.586 5.67108 10.914C5.67108 10.2513 5.96508 9.70067 6.55308 9.262C5.92774 8.85133 5.61508 8.31 5.61508 7.638C5.61508 7.19 5.77374 6.84467 6.09108 6.602C6.40841 6.35933 6.81908 6.238 7.32308 6.238H9.78708V4.95H4.39708V4.012H12.4471V4.95H10.8651V7.148Z" fill="black"/>
</svg>
