<svg width="19" height="18" viewBox="0 0 19 18" fill="none" xmlns="http://www.w3.org/2000/svg">
<g id="folder-check">
<path id="Icon" d="M10.25 5.25L9.41334 3.57669C9.17255 3.0951 9.05215 2.8543 8.87253 2.67837C8.71368 2.5228 8.52224 2.40448 8.31206 2.33198C8.07437 2.25 7.80516 2.25 7.26672 2.25H4.4C3.55992 2.25 3.13988 2.25 2.81901 2.41349C2.53677 2.5573 2.3073 2.78677 2.16349 3.06901C2 3.38988 2 3.80992 2 4.65V5.25M2 5.25H13.4C14.6601 5.25 15.2902 5.25 15.7715 5.49524C16.1948 5.71095 16.5391 6.05516 16.7548 6.47852C17 6.95982 17 7.58988 17 8.85V12.15C17 13.4101 17 14.0402 16.7548 14.5215C16.5391 14.9448 16.1948 15.289 15.7715 15.5048C15.2902 15.75 14.6601 15.75 13.4 15.75H5.6C4.33988 15.75 3.70982 15.75 3.22852 15.5048C2.80516 15.289 2.46095 14.9448 2.24524 14.5215C2 14.0402 2 13.4101 2 12.15V5.25ZM7.25 10.5L8.75 12L12.125 8.625" stroke="#FF4C00" stroke-width="1.5" stroke-linecap="round" stroke-linejoin="round"/>
</g>
</svg>
