<svg width="19" height="18" viewBox="0 0 19 18" fill="none" xmlns="http://www.w3.org/2000/svg">
<g id="globe-05">
<path id="Icon" d="M8.37504 16.4162L8.37512 14.7637C8.37513 14.6742 8.40715 14.5876 8.4654 14.5197L10.3297 12.3446C10.4829 12.1658 10.4355 11.8917 10.2311 11.7749L8.0889 10.5508C8.0307 10.5175 7.98248 10.4693 7.94925 10.4111L6.55284 7.96397C6.48017 7.83661 6.33993 7.7633 6.19387 7.77631L2.04814 8.14556M17 9C17 13.1421 13.6421 16.5 9.5 16.5C5.35786 16.5 2 13.1421 2 9C2 4.85786 5.35786 1.5 9.5 1.5C10.2839 1.5 11.0353 1.63478 11.75 1.84335C14 2.5 17 5 17 9ZM15 6.5C15 8.15685 14 1 12.5 2.5C11 1 10.25 6.15685 10.25 4.5C10.25 2.84315 11.5931 12.3446 13.25 12.3446C14.9069 12.3446 15 4.84315 15 6.5Z" stroke="#FF4C00" stroke-width="1.5" stroke-linecap="round" stroke-linejoin="round"/>
</g>
</svg>
